<?xml version="1.0" encoding="UTF-8" standalone="no"?>
<svg
   viewBox="0 0 27.999999 27.999999"
   version="1.1"
   id="svg16616"
   sodipodi:docname="icon_monitoring.svg"
   width="28"
   height="28"
   inkscape:version="1.2.1 (9c6d41e410, 2022-07-14)"
   xmlns:inkscape="http://www.inkscape.org/namespaces/inkscape"
   xmlns:sodipodi="http://sodipodi.sourceforge.net/DTD/sodipodi-0.dtd"
   xmlns="http://www.w3.org/2000/svg"
   xmlns:svg="http://www.w3.org/2000/svg">
  <defs
     id="defs16620" />
  <sodipodi:namedview
     id="namedview16618"
     pagecolor="#ffffff"
     bordercolor="#000000"
     borderopacity="0.25"
     inkscape:showpageshadow="2"
     inkscape:pageopacity="0.0"
     inkscape:pagecheckerboard="0"
     inkscape:deskcolor="#d1d1d1"
     showgrid="false"
     inkscape:zoom="18.537385"
     inkscape:cx="2.7242246"
     inkscape:cy="10.681118"
     inkscape:window-width="1920"
     inkscape:window-height="1017"
     inkscape:window-x="-8"
     inkscape:window-y="-8"
     inkscape:window-maximized="1"
     inkscape:current-layer="Layer_2" />
  <g
     data-name="Layer 2"
     id="Layer_2"
     transform="matrix(0.7042376,0,0,0.7060976,-1.060781e-6,1.3138365e-4)">
    <g
       id="g18610"
       transform="matrix(1.2591102,0,0,1.2772301,0.38061572,0.41646165)"
       style="stroke:none">
      <path
         d="m 28.874995,5.9657451 h -4.850876 c -0.60636,0 -0.60636,0.8890632 0,0.8890632 h 4.850876 c 0.418605,0 0.75795,0.3317061 0.75795,0.740886 V 23.1569 H 1.4332318 V 7.5956943 c 0,-0.4091801 0.3393456,-0.740886 0.7579497,-0.740886 h 4.8482176 c 0.6063595,0 0.6063595,-0.8890632 0,-0.8890632 H 2.1911815 C 1.2705566,5.9664618 0.52442564,6.6957953 0.52369236,7.5956943 V 25.379559 c -0.002205,0.90214 0.74457064,1.635015 1.66748914,1.636449 H 9.620417 v 2.079679 H 6.4290503 c -0.5735822,0.03035 -0.5735822,0.857411 0,0.887764 H 24.630477 c 0.639136,0.03381 0.639136,-0.921584 0,-0.887764 h -3.191365 v -2.079679 h 7.429235 c 0.92084,-0.0015 1.666757,-0.73114 1.667489,-1.63125 V 7.5956943 C 30.535115,6.6983243 29.793022,5.970035 28.874995,5.9657451 Z M 20.536221,29.085288 H 10.529956 v -2.06928 h 10.006265 z m 9.096724,-3.705729 c 0,0.40918 -0.339347,0.740885 -0.75795,0.740885 H 2.1911815 C 1.1180844,26.094448 1.4970592,24.704963 1.4332318,24.040765 H 29.632945 Z M 23.094632,9.093064 C 22.671776,8.6914258 23.323347,8.066222 23.738225,8.4652606 24.153103,8.8642992 23.504192,9.5064004 23.094632,9.093064 Z m 2.444056,0.1299803 c -0.60636,0 -0.60636,-0.8890633 0,-0.8890633 0.607247,0 0.607247,0.8903631 0,0.8903631 z m 2.127578,0 c -0.852362,-0.079288 -0.345732,-1.2803033 0.321795,-0.7590835 0.28105,0.2836859 0.07688,0.758282 -0.327115,0.760383 z m -16.83313,4.2997387 c 0.0022,-1.474533 0.726395,-2.85893 1.948064,-3.7239276 0.1808,-0.1278374 0.429779,-0.1085664 0.587743,0.045493 0.09441,0.090986 2.457353,3.3300876 2.526499,3.4184746 0.354035,0.48084 -0.383968,1.00076 -0.738004,0.519919 l -2.195394,-2.980441 c -3.0783656,2.781028 0.05506,7.660351 3.953097,6.168943 3.898036,-1.491407 2.810367,-7.1534469 -1.381387,-7.1528917 -0.60636,0 -0.60636,-0.8890633 0,-0.8890633 4.188414,4e-7 6.284914,4.949876 3.323199,7.844097 -2.961717,2.894221 -8.025001,0.843518 -8.023817,-3.250603 z m -3.031798,0 c -0.00438,5.518892 5.848958,9.180051 10.973639,6.863997 5.12468,-2.316053 6.062786,-9.046547 1.758585,-12.6182122 l 1.752591,-2.27595 C 22.651471,5.018613 21.924104,4.4830953 21.558787,4.9571002 L 19.804866,7.2304505 C 18.666567,6.4916682 17.347419,6.0627486 15.983204,5.9878417 V 5.0311888 c 2.692442,-0.5364013 2.280881,-4.39909085 -0.454105,-4.39909085 -2.734985,0 -3.146546,3.86268955 -0.454104,4.39909085 v 0.9566529 c -1.363806,0.074886 -2.682531,0.5038176 -3.820332,1.2426088 L 9.5073894,4.9571002 C 9.1421625,4.4830543 8.4147969,5.018572 8.7800237,5.4926178 l 1.7525923,2.27595 C 8.8007738,9.2006773 7.8017422,11.305422 7.801338,13.522783 Z M 14.169444,2.852724 c -9.12e-4,-1.079449 1.243923,-1.7108765 2.146363,-1.0888092 0.902438,0.6220674 0.711902,1.9802431 -0.328614,2.3418164 0.222499,-0.058885 0.525926,0.00563 -0.06049,0.00693 -0.586414,0.0013 -0.847717,-0.00693 -0.847717,-0.00693 -0.54383,-0.1875301 -0.908067,-0.689314 -0.909542,-1.2530072 z m 1.36431,4.0020843 c 6.079277,4e-7 9.122381,7.1843797 4.823785,11.3853827 C 16.058945,22.441195 8.709693,19.465198 8.7108774,13.522783 8.7160072,9.8417337 11.767924,6.8591042 15.533754,6.8548083 Z"
         data-name="speed optimization"
         id="speed_optimization"
         style="fill:#929292;fill-opacity:1;stroke:none;stroke-width:0.755064;stroke-dasharray:none;stroke-opacity:1"
         sodipodi:nodetypes="cssssccsssscccccccccccccccccccccsscccscsccsccccccccccccscssccsccccccsccccccccscscccscc" />
    </g>
  </g>
</svg>
