<?xml version="1.0" encoding="UTF-8" standalone="no"?>
<svg
   width="20"
   height="20"
   viewBox="0 0 20 20"
   fill="none"
   version="1.1"
   id="svg6744"
   sodipodi:docname="icon_sensor.svg"
   inkscape:version="1.2.1 (9c6d41e410, 2022-07-14)"
   xmlns:inkscape="http://www.inkscape.org/namespaces/inkscape"
   xmlns:sodipodi="http://sodipodi.sourceforge.net/DTD/sodipodi-0.dtd"
   xmlns="http://www.w3.org/2000/svg"
   xmlns:svg="http://www.w3.org/2000/svg">
  <defs
     id="defs6748" />
  <sodipodi:namedview
     id="namedview6746"
     pagecolor="#ffffff"
     bordercolor="#000000"
     borderopacity="0.25"
     inkscape:showpageshadow="2"
     inkscape:pageopacity="0.0"
     inkscape:pagecheckerboard="0"
     inkscape:deskcolor="#d1d1d1"
     showgrid="false"
     inkscape:zoom="29.592419"
     inkscape:cx="5.9643654"
     inkscape:cy="9.090166"
     inkscape:window-width="1920"
     inkscape:window-height="1017"
     inkscape:window-x="-8"
     inkscape:window-y="-8"
     inkscape:window-maximized="1"
     inkscape:current-layer="svg6744" />
  <path
     d="m 12.929537,3.9514596 c -0.121908,0.312186 -0.474139,0.4666531 -0.786868,0.345006 -2.1797473,-0.84784 -4.7489038,-0.3922524 -6.5074318,1.3632198 -2.3732667,2.3691428 -2.3732667,6.2103016 0,8.5794206 0.2373363,0.236961 0.2373363,0.621097 0,0.857936 -0.2373243,0.23696 -0.6221041,0.23696 -0.8594283,0 -2.8479273,-2.842918 -2.8479273,-7.452325 0,-10.2953035 2.1116946,-2.1080251 5.195257,-2.6520999 7.8080591,-1.635791 0.312729,0.1216349 0.467453,0.4733262 0.345669,0.7855121 z m 3.01134,3.0060722 c 0.31273,-0.1216347 0.664961,0.032832 0.786868,0.3450184 1.018041,2.6083119 0.473044,5.6864788 -1.63876,7.7944918 -0.237252,0.23696 -0.622056,0.23696 -0.859428,0 -0.237252,-0.236839 -0.237252,-0.620975 0,-0.857936 1.7586,-1.755423 2.214993,-4.3200797 1.365653,-6.4960621 -0.121908,-0.3121858 0.03294,-0.6638651 0.345667,-0.7855121 z m -1.0432,-2.0808226 C 14.676712,4.6883299 14.353043,4.6824818 14.125395,4.862744 L 13.910993,5.0328021 C 13.774501,5.141236 13.578939,5.2966616 13.343024,5.4847499 12.871317,5.8608651 12.23735,6.367873 11.58965,6.8910301 10.942434,7.4138231 10.279299,7.9543185 9.7497127,8.3969115 9.4851984,8.6179895 9.251411,8.8167912 9.0685626,8.977798 8.8985367,9.1275332 8.7392427,9.2732044 8.6517321,9.3754982 c -0.6538632,0.7644248 -0.5632046,1.9131908 0.20249,2.5658328 0.7656951,0.652764 1.9164729,0.56225 2.5703729,-0.202138 0.08751,-0.102282 0.206622,-0.282097 0.328166,-0.473192 0.130657,-0.205536 0.290728,-0.467128 0.468059,-0.76257 0.355026,-0.5913687 0.785896,-1.3297918 1.201814,-2.0498213 0.416163,-0.7205512 0.818591,-1.4248684 1.116857,-1.9489111 0.149132,-0.2620639 0.272376,-0.4791379 0.358186,-0.6307417 l 0.13479,-0.2379917 c 0.142691,-0.252697 0.08618,-0.5708768 -0.13479,-0.759256 z M 9.9324154,19.65583 c 5.3701206,0 9.7234136,-4.34573 9.7234136,-9.7065187 0,-5.3607643 -4.353293,-9.70651812 -9.7234136,-9.70651812 -5.3700963,0 -9.72341465,4.34575382 -9.72341465,9.70651812 0,5.3607887 4.35331835,9.7065187 9.72341465,9.7065187 z m 0,-1.213316 c -4.6988281,0 -8.5079879,-3.802528 -8.5079879,-8.4932027 0,-4.6906627 3.8091598,-8.4932033 8.5079879,-8.4932033 4.6988396,0 8.5079876,3.8025406 8.5079876,8.4932033 0,4.6906747 -3.809148,8.4932027 -8.5079876,8.4932027 z"
     fill="#212121"
     id="path6742"
     style="fill:#8a95aa;fill-opacity:1;stroke-width:1.21438" />
</svg>
