<?xml version="1.0" encoding="UTF-8" standalone="no"?>
<svg
   width="24"
   height="24"
   viewBox="0 0 24 24"
   fill="none"
   version="1.1"
   id="svg12495"
   sodipodi:docname="icon_unchecked.svg"
   inkscape:version="1.2.1 (9c6d41e410, 2022-07-14)"
   xmlns:inkscape="http://www.inkscape.org/namespaces/inkscape"
   xmlns:sodipodi="http://sodipodi.sourceforge.net/DTD/sodipodi-0.dtd"
   xmlns="http://www.w3.org/2000/svg"
   xmlns:svg="http://www.w3.org/2000/svg">
  <defs
     id="defs12499">
    <clipPath
       clipPathUnits="userSpaceOnUse"
       id="clipPath12852">
      <path
         id="path12854"
         style="fill:#ff0000;fill-opacity:1;fill-rule:nonzero;stroke:none"
         d="M 3,3 V 21 H 21 V 3 Z m 9.523438,5.3066406 c 0.603405,0.010821 1.204433,0.092493 1.789062,0.2421875 0.335373,0.1035348 0.667783,0.2106887 0.992188,0.3457031 0.228617,0.095152 0.447356,0.1947021 0.660156,0.3222657 0.09656,0.057883 0.187947,0.126456 0.28125,0.1894531 0.08232,0.069681 0.167618,0.1350003 0.246094,0.2089844 0.322885,0.3044078 0.635065,0.7310556 0.835937,1.1249996 0.05986,0.117408 0.108549,0.240918 0.162109,0.361328 0.101948,0.305515 0.161446,0.459184 0.228516,0.777344 0.08683,0.411929 0.12502,0.838889 0.04687,1.25586 -0.02699,0.144009 -0.07656,0.2825 -0.115234,0.423828 -0.175108,0.38336 -0.206879,0.510734 -0.478516,0.849609 -0.38852,0.484689 -0.912062,0.853685 -1.46875,1.121094 C 15.474883,15.638946 15.234808,15.71767 15,15.8125 c -0.260136,0.07745 -0.519011,0.162422 -0.78125,0.232422 -0.274512,0.07328 -0.552059,0.138686 -0.830078,0.197266 -0.780142,0.164365 -1.576973,0.283443 -2.376953,0.251953 -0.23382,-0.0092 -0.466369,-0.04517 -0.699219,-0.06836 C 9.7502582,16.30258 9.5388895,16.29058 9.0175781,16.042969 8.8244927,15.951258 8.6428579,15.837088 8.4648438,15.71875 8.095517,15.473234 7.7471026,15.182799 7.4453125,14.857422 7.2981974,14.69881 7.1717245,14.523248 7.0351562,14.355469 6.7886102,13.951601 6.682062,13.81218 6.5058594,13.378906 6.316683,12.913737 6.2004691,12.401173 6.2207031,11.896484 c 0.00648,-0.161636 0.042959,-0.320137 0.064453,-0.480468 0.042665,-0.155358 0.078408,-0.313806 0.1289063,-0.466797 C 6.5199064,10.628552 6.626477,10.403883 6.7851562,10.109375 6.9056694,9.8857047 7.0499714,9.6751838 7.1699219,9.4511719 7.3173145,9.1759102 7.6026214,9.3187456 7.4511719,9.5917969 7.256647,9.942508 7.0309458,10.275972 6.8691406,10.644531 6.7033628,11.022147 6.6973672,11.102996 6.5898438,11.5 c -0.018678,0.146325 -0.051833,0.290066 -0.056641,0.4375 -0.014711,0.451126 0.1004162,0.925429 0.2714844,1.339844 0.166927,0.404377 0.2675507,0.533894 0.5,0.912109 0.1283012,0.156137 0.2466768,0.321199 0.3847656,0.46875 0.2858694,0.305458 0.6139495,0.578292 0.9628907,0.808594 0.1683693,0.111124 0.3408576,0.216935 0.5234374,0.302734 0.4743655,0.222916 0.6909874,0.238121 1.2031251,0.347657 0.220856,0.02131 0.440374,0.05645 0.66211,0.06445 0.77028,0.02795 1.540097,-0.0911 2.291015,-0.25 0.272662,-0.0577 0.545225,-0.12134 0.814453,-0.19336 0.256536,-0.06862 0.507251,-0.152585 0.761719,-0.228515 0.225376,-0.09153 0.458706,-0.167618 0.677735,-0.273438 0.514316,-0.248489 0.999654,-0.591585 1.355468,-1.042969 0.2402,-0.304705 0.266821,-0.420199 0.419922,-0.763671 0.03294,-0.125328 0.07704,-0.249348 0.09961,-0.376954 0.08836,-0.499543 -0.0072,-1.016857 -0.150391,-1.496093 -0.03585,-0.120025 -0.07927,-0.236717 -0.119141,-0.355469 -0.04983,-0.11088 -0.09472,-0.22396 -0.15039,-0.332031 -0.186099,-0.36127 -0.479684,-0.758391 -0.777344,-1.0371098 -0.07029,-0.065814 -0.146823,-0.1218444 -0.220703,-0.1835937 -0.01553,-0.010354 -0.03142,-0.020588 -0.04687,-0.03125 -0.01836,0.026315 -0.08199,0.041247 -0.111328,0.064453 -0.0055,0.00436 -0.01206,0.00737 -0.01758,0.011719 -0.01781,0.014027 -0.03485,0.02905 -0.05274,0.042969 0.03797,0.1206494 0.0056,0.2865015 -0.144531,0.4628905 -0.188652,0.221721 -0.377929,0.443605 -0.570313,0.662109 -0.1265,0.1441 -0.25664,0.28478 -0.386718,0.425781 0.06295,0.228405 -0.05694,0.474521 -0.212891,0.644532 -0.141135,0.153853 -0.320264,0.269191 -0.494141,0.384765 -0.432441,0.287441 -0.763451,0.449621 -1.171875,0.642578 -0.128529,0.148288 -0.267745,0.275263 -0.421875,0.388672 1.23e-4,0.06059 -0.0043,0.1208 -0.02344,0.177735 -0.02923,0.08702 -0.106201,0.151047 -0.175781,0.210937 -0.08243,0.07095 -0.18895,0.13121 -0.304688,0.181641 0.03068,0.02353 0.05704,0.05339 0.07227,0.103515 0.01713,0.05641 -0.04488,0.104217 -0.08399,0.154297 0.0077,-0.0039 0.01583,-0.0083 0.02344,-0.01172 0.594864,-0.269019 0.899214,0.241627 0.333984,0.56836 -0.21378,0.123576 -0.445379,0.209201 -0.697265,0.175781 -0.07845,-0.01041 -0.153579,-0.03788 -0.230469,-0.05664 -0.08083,-0.03611 -0.164098,-0.06571 -0.242188,-0.107421 -0.09245,-0.04939 -0.182366,-0.105769 -0.269531,-0.166016 -0.08943,-0.02897 -0.175007,-0.06611 -0.257812,-0.103516 -0.139568,0.02832 -0.290494,0.01693 -0.427735,0.002 -0.05903,-0.01712 -0.121133,-0.02683 -0.1777344,-0.05078 C 9.8487955,14.382451 9.7545818,14.322063 9.6679688,14.251953 9.4581211,14.215258 9.3433153,14.107613 9.3085938,13.990234 8.9949482,13.971965 8.6916409,13.878079 8.4199219,13.632812 8.1103884,13.353414 8.181821,12.723278 8.1972656,12.361328 8.1305819,12.315107 8.064718,12.267873 8,12.21875 7.976208,12.19856 7.952816,12.1791 7.929688,12.1582 7.88562,12.18019 7.844371,12.20306 7.837891,12.20312 7.777504,12.2037 7.7204096,12.1662 7.6601566,12.1621 c 0.00723,0.0054 0.029962,0.01902 0.046875,0.02734 0.011579,-5.65e-4 0.01994,-2.56e-4 0.023438,0 -0.00235,7.33e-4 -0.0067,0.0025 -0.013672,0.0039 -0.00211,-0.0012 -0.00682,-0.0025 -0.00977,-0.0039 -0.045139,0.0022 -0.1404932,0.01074 -0.1875,0.01563 -0.1265984,0.01321 -0.1734338,0.01914 -0.296875,0.02344 -0.027768,9.67e-4 -0.056199,0 -0.083984,0 v 0.002 c -0.3122406,0 -0.3120657,-0.326852 0,-0.316407 0.1169595,0.0039 0.2335649,-0.0092 0.3496093,-0.02148 0.04402,-0.0046 0.095053,-0.0095 0.1464844,-0.01367 2.562e-4,-0.0022 8.861e-4,-0.0035 0.00195,-0.0059 -0.017147,-0.0172 -0.035636,-0.03356 -0.052734,-0.05078 0.025689,-0.02222 0.051146,-0.0452 0.076172,-0.06836 -0.3825356,-0.321199 -0.1209007,-0.780905 0.4042969,-0.507812 0.1043898,0.05428 0.2051477,0.114009 0.3046875,0.175781 0.00541,-0.002 0.010619,-0.005 0.015625,-0.0059 0.00315,-5.2e-4 0.00506,0.0016 0.00781,0.002 0.050891,-0.189612 0.1067005,-0.377934 0.1679688,-0.564453 0.104956,-0.319522 0.2527085,-0.624588 0.3496093,-0.947266 0.082151,-0.2735611 0.2519706,-0.3920355 0.4003907,-0.3867188 0.1908257,0.00684 0.3468504,0.2168174 0.234375,0.5664068 -0.059801,0.185863 -0.1266687,0.370015 -0.1953125,0.552734 -0.05642,0.150179 -0.1218152,0.296801 -0.171875,0.449219 -0.052422,0.15961 -0.1004042,0.321866 -0.1445313,0.484375 0.1151122,0.01051 0.390079,0.02325 0.40625,0.171875 0.00763,0.07015 -0.00312,0.124711 -0.023437,0.169921 0.014366,0.02023 0.029008,0.04023 0.044922,0.05859 -0.026655,0.03881 -0.046066,0.08463 -0.080078,0.117188 -0.00791,0.0076 -0.038921,0.02413 -0.060547,0.03711 0.093247,0.07691 0.1865784,0.153416 0.2792969,0.230469 0.2001207,0.165137 0.3964508,0.337093 0.5917964,0.507812 0.385548,-0.255904 0.738944,-0.555933 1.064453,-0.884765 0.09195,-0.09288 0.388673,-0.41197 0.476563,-0.50586 0.136471,-0.135188 0.37691,-0.381354 0.529297,-0.501953 0.113771,-0.09004 0.23328,-0.17177 0.355469,-0.25 0.367431,-0.235258 0.771675,-0.430763 1.160156,-0.628906 0.348669,-0.1773036 0.7031,-0.3445078 1.046875,-0.53125 0.106225,-0.097179 0.20389,-0.2047715 0.322265,-0.2871094 0.02478,-0.017235 0.05322,-0.063926 0.07813,-0.046875 0.02654,0.01817 0.05108,0.03858 0.07617,0.058594 0.01461,-0.00959 0.02868,-0.019246 0.04297,-0.029297 -0.056,-0.024529 -0.111655,-0.050904 -0.167969,-0.074219 C 14.86246,9.0538055 14.542503,8.9493437 14.21875,8.8496094 13.660032,8.7082133 13.086038,8.6308931 12.509766,8.6210938 c -0.114553,-0.00194 -0.229183,0.00118 -0.34375,0.00195 -0.67046,0.016367 -1.334013,0.1239307 -1.994141,0.234375 C 9.8850954,8.9076838 9.6006007,8.9619323 9.3144531,9.015625 9.0075686,9.0732075 8.9489752,8.7626611 9.2558594,8.7050781 9.5440479,8.6510036 9.8322602,8.5954912 10.121094,8.5449219 c 0.676672,-0.1131575 1.355689,-0.2203638 2.042968,-0.2363281 0.119516,-6.9e-4 0.239877,-0.00409 0.359376,-0.00195 z M 8.8359375,12.876953 c 0.0085,0.205988 0.049111,0.416685 0.1875,0.498047 -0.00564,-0.03263 -0.011081,-0.0655 -0.015625,-0.09766 -0.00479,-0.03391 0.064656,-0.02205 0.097656,-0.03125 0.012064,-0.0034 0.026668,-0.0064 0.039062,-0.0098 6.007e-4,-0.0397 0.0026,-0.07983 0.00781,-0.11914 C 9.046256,13.0383 8.940842,12.957356 8.8359342,12.876915 Z m 2.9843745,1.337891 c -0.0071,0.0021 -0.01421,0.0044 -0.02148,0.0059 -2.38e-4,0.0019 2.65e-4,0.0039 0,0.0059 0.0074,-0.0036 0.01419,-0.0079 0.02148,-0.01172 z" />
    </clipPath>
  </defs>
  <sodipodi:namedview
     id="namedview12497"
     pagecolor="#ffffff"
     bordercolor="#000000"
     borderopacity="0.25"
     inkscape:showpageshadow="2"
     inkscape:pageopacity="0.0"
     inkscape:pagecheckerboard="0"
     inkscape:deskcolor="#d1d1d1"
     showgrid="false"
     inkscape:zoom="34.875"
     inkscape:cx="8.5591398"
     inkscape:cy="12.014337"
     inkscape:window-width="1920"
     inkscape:window-height="1017"
     inkscape:window-x="-8"
     inkscape:window-y="-8"
     inkscape:window-maximized="1"
     inkscape:current-layer="svg12495" />
  <path
     fill-rule="evenodd"
     clip-rule="evenodd"
     d="M17.5 20.25H6.5C4.98122 20.25 3.75 19.0188 3.75 17.5V6.5C3.75 4.98122 4.98122 3.75 6.5 3.75H17.5C19.0188 3.75 20.25 4.98122 20.25 6.5V17.5C20.25 19.0188 19.0188 20.25 17.5 20.25ZM17.5 21H6.5C4.567 21 3 19.433 3 17.5V6.5C3 4.567 4.567 3 6.5 3H17.5C19.433 3 21 4.567 21 6.5V17.5C21 19.433 19.433 21 17.5 21ZM15.6402 10.0152C15.7866 9.86872 15.7866 9.63128 15.6402 9.48484C15.4937 9.33839 15.2563 9.33839 15.1098 9.48484L11.0076 13.5871C10.9344 13.6603 10.8156 13.6603 10.7424 13.5871L8.89016 11.7348C8.74372 11.5884 8.50628 11.5884 8.35984 11.7348C8.21339 11.8813 8.21339 12.1187 8.35984 12.2652L10.2121 14.1174C10.5782 14.4835 11.1718 14.4835 11.5379 14.1174L15.6402 10.0152Z"
     fill="black"
     id="path12493"
     clip-path="url(#clipPath12852)" />
</svg>
