<?xml version="1.0" encoding="UTF-8" standalone="no"?>
<svg
   viewBox="0 0 28 28"
   version="1.1"
   id="svg66"
   sodipodi:docname="icon_pool.svg"
   width="28"
   height="28"
   inkscape:version="1.2.1 (9c6d41e410, 2022-07-14)"
   xmlns:inkscape="http://www.inkscape.org/namespaces/inkscape"
   xmlns:sodipodi="http://sodipodi.sourceforge.net/DTD/sodipodi-0.dtd"
   xmlns="http://www.w3.org/2000/svg"
   xmlns:svg="http://www.w3.org/2000/svg">
  <defs
     id="defs70" />
  <sodipodi:namedview
     id="namedview68"
     pagecolor="#ffffff"
     bordercolor="#000000"
     borderopacity="0.25"
     inkscape:showpageshadow="2"
     inkscape:pageopacity="0.0"
     inkscape:pagecheckerboard="0"
     inkscape:deskcolor="#d1d1d1"
     showgrid="false"
     inkscape:zoom="13.078125"
     inkscape:cx="22.900836"
     inkscape:cy="13.686977"
     inkscape:window-width="1920"
     inkscape:window-height="1017"
     inkscape:window-x="-8"
     inkscape:window-y="-8"
     inkscape:window-maximized="1"
     inkscape:current-layer="svg66" />
  <g
     id="a"
     transform="matrix(0.47285347,0,0,0.5370566,-1.097612,-3.1525445)" />
  <g
     id="b"
     transform="matrix(0.47285347,0,0,0.5370566,-1.097612,-3.1525445)" />
  <g
     id="c"
     transform="matrix(0.47285347,0,0,0.5370566,-1.097612,-3.1525445)" />
  <g
     id="d"
     transform="matrix(0.47285347,0,0,0.5370566,-1.097612,-3.1525445)" />
  <g
     id="e"
     transform="matrix(0.47285347,0,0,0.5370566,-1.097612,-3.1525445)" />
  <g
     id="f"
     transform="matrix(0.47285347,0,0,0.5370566,-1.097612,-3.1525445)" />
  <g
     id="g"
     transform="matrix(0.47285347,0,0,0.5370566,-1.097612,-3.1525445)" />
  <g
     id="h"
     transform="matrix(0.47285347,0,0,0.5370566,-1.097612,-3.1525445)" />
  <g
     id="i"
     transform="matrix(0.47285347,0,0,0.5370566,-1.097612,-3.1525445)" />
  <g
     id="j"
     transform="matrix(0.47285347,0,0,0.5370566,-1.097612,-3.1525445)" />
  <g
     id="k"
     transform="matrix(0.47285347,0,0,0.5370566,-1.097612,-3.1525445)" />
  <g
     id="l"
     transform="matrix(0.47285347,0,0,0.5370566,-1.097612,-3.1525445)" />
  <g
     id="m"
     transform="matrix(0.47285347,0,0,0.5370566,-1.097612,-3.1525445)" />
  <g
     id="n"
     transform="matrix(0.47285347,0,0,0.5370566,-1.097612,-3.1525445)" />
  <g
     id="o"
     transform="matrix(0.47285347,0,0,0.5370566,-1.097612,-3.1525445)" />
  <g
     id="p"
     transform="matrix(0.47285347,0,0,0.5370566,-1.097612,-3.1525445)" />
  <g
     id="q"
     transform="matrix(0.47285347,0,0,0.5370566,-1.097612,-3.1525445)" />
  <g
     id="r"
     transform="matrix(0.47285347,0,0,0.5370566,-1.097612,-3.1525445)" />
  <g
     id="s"
     transform="matrix(0.47285347,0,0,0.5370566,-1.097612,-3.1525445)" />
  <g
     id="t"
     transform="matrix(0.47285347,0,0,0.5370566,-1.097612,-3.1525445)" />
  <g
     id="u"
     transform="matrix(0.47285347,0,0,0.5370566,-1.097612,-3.1525445)" />
  <g
     id="v"
     transform="matrix(0.47285347,0,0,0.5370566,-1.097612,-3.1525445)" />
  <g
     id="w"
     transform="matrix(0.47285347,0,0,0.5370566,-1.097612,-3.1525445)" />
  <g
     id="x"
     transform="matrix(0.47285347,0,0,0.5370566,-1.097612,-3.1525445)" />
  <g
     id="y"
     transform="matrix(0.47285347,0,0,0.5370566,-1.097612,-3.1525445)" />
  <g
     id="a`"
     transform="matrix(0.47285347,0,0,0.5370566,-1.097612,-3.1525445)" />
  <g
     id="aa"
     transform="matrix(0.47285347,0,0,0.5370566,-1.097612,-3.1525445)" />
  <g
     id="ab"
     transform="matrix(0.47285347,0,0,0.5370566,-1.097612,-3.1525445)" />
  <g
     id="ac"
     transform="matrix(0.47285347,0,0,0.5370566,-1.097612,-3.1525445)" />
  <g
     id="ad"
     transform="matrix(0.47285347,0,0,0.5370566,-1.097612,-3.1525445)" />
  <g
     id="ae"
     transform="matrix(0.47285347,0,0,0.5370566,-1.097612,-3.1525445)" />
  <g
     id="af"
     transform="matrix(0.47285347,0,0,0.5370566,-1.097612,-3.1525445)" />
  <g
     id="ag"
     transform="matrix(0.47285347,0,0,0.5370566,-1.097612,-3.1525445)" />
  <g
     id="ah"
     transform="matrix(0.47285347,0,0,0.5370566,-1.097612,-3.1525445)" />
  <g
     id="ai"
     transform="matrix(0.47285347,0,0,0.5370566,-1.097612,-3.1525445)" />
  <g
     id="aj"
     transform="matrix(0.47285347,0,0,0.5370566,-1.097612,-3.1525445)" />
  <g
     id="ak"
     transform="matrix(0.47285347,0,0,0.5370566,-1.097612,-3.1525445)" />
  <g
     id="al"
     transform="matrix(0.47285347,0,0,0.5370566,-1.097612,-3.1525445)"
     style="fill:#8a95aa;fill-opacity:1">
    <path
       d="m 58.38,39.48 c -1.12,-0.58 -2.47,-0.46 -3.62,0.34 -1.45,1.01 -3.69,0.92 -5.31,-0.21 -2.36,-1.63 -5.53,-1.63 -7.89,0 -1.71,1.18 -3.91,1.18 -5.61,0 -2.36,-1.63 -5.53,-1.63 -7.89,0 -1.7,1.18 -3.91,1.18 -5.61,0 C 20.12,38 16.89,38 14.56,39.61 12.94,40.74 10.7,40.82 9.25,39.82 8.1,39.02 6.74,38.9 5.63,39.48 4.61,40.01 4.01,41.02 4.01,42.19 v 10.39 c 0,2.31 1.88,4.2 4.2,4.2 H 55.8 c 2.31,0 4.2,-1.88 4.2,-4.2 V 42.19 c 0,-1.16 -0.61,-2.18 -1.62,-2.71 z M 6,46.64 C 6,46.23 6.2,45.89 6.55,45.7 7,45.46 7.58,45.54 8.11,45.91 c 2.15,1.49 5.27,1.4 7.59,-0.21 1.66,-1.15 3.96,-1.15 5.61,0 2.36,1.63 5.53,1.63 7.89,0 1.66,-1.15 3.95,-1.15 5.61,0 2.36,1.63 5.53,1.63 7.89,0 1.71,-1.18 3.91,-1.18 5.61,0 2.32,1.61 5.44,1.69 7.59,0.21 0.53,-0.37 1.11,-0.44 1.56,-0.21 0.35,0.18 0.55,0.52 0.55,0.94 v 1.62 c -1.04,-0.39 -2.22,-0.24 -3.25,0.47 -1.45,1 -3.69,0.92 -5.31,-0.21 -2.36,-1.63 -5.53,-1.63 -7.89,0 -1.71,1.18 -3.91,1.18 -5.61,0 -2.33,-1.62 -5.56,-1.62 -7.89,0 -1.71,1.18 -3.91,1.18 -5.61,0 -2.33,-1.61 -5.56,-1.61 -7.89,0 -1.63,1.13 -3.86,1.21 -5.31,0.21 C 8.22,48.02 7.04,47.87 6,48.26 Z m 0.55,-5.4 c 0.17,-0.09 0.36,-0.13 0.56,-0.13 0.32,0 0.67,0.12 1,0.34 2.15,1.49 5.27,1.4 7.59,-0.21 1.66,-1.15 3.95,-1.15 5.61,0 2.36,1.63 5.53,1.63 7.89,0 1.7,-1.18 3.91,-1.18 5.61,0 2.36,1.63 5.53,1.63 7.89,0 1.71,-1.18 3.91,-1.18 5.61,0 2.32,1.61 5.44,1.69 7.59,0.21 0.53,-0.37 1.11,-0.44 1.56,-0.21 0.35,0.18 0.55,0.52 0.55,0.94 v 1.62 c -1.04,-0.39 -2.22,-0.24 -3.25,0.47 -1.45,1.01 -3.69,0.92 -5.31,-0.21 -2.36,-1.63 -5.53,-1.63 -7.89,0 -1.71,1.18 -3.91,1.18 -5.61,0 -2.33,-1.61 -5.56,-1.61 -7.89,0 -1.7,1.18 -3.91,1.18 -5.61,0 -2.33,-1.61 -5.56,-1.61 -7.89,0 -1.62,1.13 -3.86,1.21 -5.31,0.21 C 8.22,43.56 7.04,43.41 6,43.8 V 42.18 C 6,41.77 6.2,41.43 6.55,41.24 Z M 58,52.57 c 0,1.21 -0.99,2.2 -2.2,2.2 H 8.2 C 6.99,54.77 6,53.78 6,52.57 V 51.1 c 0,-0.41 0.2,-0.75 0.55,-0.94 0.45,-0.23 1.03,-0.15 1.56,0.21 2.15,1.48 5.27,1.4 7.59,-0.21 1.66,-1.15 3.95,-1.15 5.61,0 2.36,1.63 5.53,1.63 7.89,0 1.66,-1.15 3.95,-1.15 5.61,0 2.36,1.63 5.53,1.63 7.89,0 1.71,-1.18 3.91,-1.18 5.61,0 2.32,1.61 5.44,1.69 7.59,0.21 0.53,-0.37 1.11,-0.45 1.56,-0.21 0.35,0.18 0.55,0.53 0.55,0.94 v 1.47 z"
       id="path39"
       style="fill:#8a95aa;fill-opacity:1" />
    <path
       d="M 43.65,8.24 C 42.9,7.26 41.28,6.93 40.11,7.53 39.43,7.87 38.47,8.43 37.51,9.1 35.68,8.23 33.7,7.73 31.62,7.73 c -3.69,0 -7.16,1.44 -9.77,4.05 -2.36,2.36 -3.79,5.54 -4.01,8.85 -2.55,-0.28 -5.02,1.35 -5.7,3.91 l -0.16,0.6 c -0.42,1.58 0.52,3.22 2.1,3.64 l 2.54,0.68 c 0.79,0.21 1.6,0.24 2.39,0.09 0.61,0.53 1.33,0.91 2.12,1.12 l 2.54,0.68 c 0.77,0.21 1.57,0.1 2.26,-0.29 0.69,-0.4 1.18,-1.04 1.38,-1.81 l 0.16,-0.59 c 0.66,-2.47 -0.54,-5 -2.73,-6.12 1.36,-1.18 3.15,-1.59 4.87,-1.23 -0.22,0.36 -0.47,0.74 -0.64,1.08 -0.35,0.69 -0.38,1.5 -0.08,2.23 0.28,0.69 0.83,1.21 1.5,1.43 1.44,0.47 3.29,0.44 5.08,-0.24 l 5.05,5.05 c 0.64,0.64 1.49,1 2.4,1 v 0 c 0.9,0 1.76,-0.35 2.4,-1 0.64,-0.64 1,-1.49 1,-2.4 0,-0.91 -0.35,-1.76 -1,-2.4 -0.14,-0.14 -0.21,-0.34 -0.2,-0.57 0.02,-0.29 0.16,-0.58 0.42,-0.84 1.02,-1.02 1.53,-2.66 1.36,-4.39 -0.11,-1.18 -0.63,-2.88 -2.11,-4.83 1.14,-3.37 -0.2,-5.93 -1.15,-7.17 z m -2.63,1.07 c 0.33,-0.17 0.88,-0.05 1.04,0.15 0.71,0.92 1.36,2.33 1.13,4.12 l -1.8,-1.8 c -0.6,-0.6 -1.25,-1.11 -1.93,-1.58 0.58,-0.36 1.13,-0.67 1.55,-0.89 z M 26.04,19.62 c 0.52,-0.54 1.08,-0.97 1.73,-1.21 1.42,-0.53 2.93,-0.26 4.01,0.11 -0.35,0.31 -0.63,0.71 -0.94,1.08 -1.6,-0.53 -3.26,-0.5 -4.8,0.02 z m 12.53,6.44 -1.26,-1.26 c 0.22,-0.16 0.46,-0.25 0.67,-0.44 l 0.2,0.2 c 0.31,0.31 0.48,0.72 0.47,1.16 0,0.12 -0.05,0.23 -0.07,0.34 z m 5.35,1.41 c 0.26,0.26 0.41,0.61 0.41,0.98 0,0.37 -0.15,0.72 -0.41,0.99 -0.26,0.26 -0.62,0.41 -0.99,0.41 v 0 c -0.37,0 -0.72,-0.15 -0.98,-0.41 l -1.89,-1.89 c 0.33,-0.55 0.57,-1.14 0.58,-1.8 0.01,-0.98 -0.36,-1.91 -1.05,-2.6 l -0.9,-0.9 c -0.19,-0.19 -0.46,-0.31 -0.74,-0.29 -0.28,0 -0.54,0.13 -0.72,0.33 -2.13,2.38 -4.91,2.29 -6.21,1.86 -0.16,-0.05 -0.25,-0.2 -0.28,-0.29 -0.08,-0.18 -0.07,-0.4 0.01,-0.56 1.08,-2.12 2.31,-3.54 3.47,-4.01 0.35,-0.14 0.59,-0.47 0.62,-0.84 0.03,-0.38 -0.15,-0.74 -0.47,-0.93 -0.15,-0.09 -3.75,-2.29 -7.29,-0.97 -3.3,1.22 -5.37,5.72 -4.94,6.84 v 0 c 0.2,0.49 0.81,0.65 1.06,0.71 1.76,0.47 2.82,2.29 2.34,4.06 l -0.16,0.59 c -0.07,0.25 -0.23,0.46 -0.45,0.59 -0.22,0.13 -0.49,0.16 -0.74,0.1 l -2.54,-0.68 c -0.62,-0.17 -1.17,-0.5 -1.6,-0.97 -0.26,-0.29 -0.67,-0.4 -1.05,-0.28 -0.6,0.19 -1.25,0.21 -1.87,0.04 L 14.59,26.87 C 14.07,26.73 13.76,26.2 13.9,25.68 l 0.16,-0.6 c 0.23,-0.86 0.78,-1.57 1.54,-2.01 0.76,-0.44 1.66,-0.56 2.52,-0.33 l 0.43,0.11 c 0.64,0.17 1.27,-0.32 1.26,-0.99 -0.08,-3.22 1.18,-6.37 3.45,-8.65 2.23,-2.23 5.2,-3.46 8.36,-3.46 3.16,0 6.13,1.23 8.36,3.46 L 42,15.23 c 2.21,2.21 2.81,4.07 2.92,5.23 0.13,1.35 -0.32,2.32 -0.78,2.79 -0.6,0.6 -0.96,1.36 -1,2.14 -0.04,0.79 0.24,1.55 0.78,2.09 z"
       id="path41"
       style="fill:#8a95aa;fill-opacity:1" />
    <path
       d="m 49.07,36.52 c 0.34,0.2 0.73,0.3 1.16,0.3 0.65,0 1.39,-0.23 2.16,-0.7 0.95,-0.57 1.81,-1.41 2.26,-2.18 0.97,-1.69 0.39,-3.85 -1.29,-4.83 -1.69,-0.97 -3.85,-0.39 -4.83,1.29 -0.88,1.53 -1.35,5.02 0.55,6.12 z m 1.18,-5.12 c 0.28,-0.49 0.8,-0.77 1.33,-0.77 0.26,0 0.52,0.07 0.76,0.2 0.73,0.42 0.98,1.36 0.56,2.1 -0.22,0.39 -0.81,1.01 -1.56,1.47 -0.69,0.42 -1.15,0.46 -1.28,0.38 -0.46,-0.26 -0.43,-2.33 0.18,-3.38 z"
       id="path43"
       style="fill:#8a95aa;fill-opacity:1" />
    <path
       d="m 9.36,35.79 c 0.45,0.77 1.31,1.61 2.26,2.18 0.77,0.46 1.5,0.7 2.16,0.7 0.42,0 0.81,-0.1 1.16,-0.3 1.9,-1.1 1.44,-4.58 0.55,-6.12 -0.97,-1.69 -3.14,-2.27 -4.83,-1.29 -1.69,0.97 -2.27,3.14 -1.29,4.83 z m 2.29,-3.1 c 0.24,-0.14 0.5,-0.21 0.77,-0.21 0.53,0 1.05,0.27 1.33,0.77 0.61,1.05 0.64,3.12 0.18,3.38 -0.13,0.07 -0.59,0.04 -1.28,-0.38 -0.75,-0.45 -1.34,-1.08 -1.56,-1.47 v 0 c -0.42,-0.73 -0.17,-1.67 0.56,-2.1 z"
       id="path45"
       style="fill:#8a95aa;fill-opacity:1" />
    <path
       d="m 28.29,30.83 c 0,1.77 1.34,5.02 3.53,5.02 2.19,0 3.53,-3.25 3.53,-5.02 0,-1.95 -1.58,-3.53 -3.53,-3.53 -1.95,0 -3.53,1.59 -3.53,3.53 z m 5.07,0 c 0,1.22 -1.01,3.02 -1.53,3.02 -0.52,0 -1.53,-1.81 -1.53,-3.02 0,-0.85 0.69,-1.53 1.53,-1.53 0.84,0 1.53,0.69 1.53,1.53 z"
       id="path47"
       style="fill:#8a95aa;fill-opacity:1" />
    <path
       d="m 12.92,13.73 c -1.69,0 -3.07,1.38 -3.07,3.07 0,1.69 1.38,3.07 3.07,3.07 1.69,0 3.07,-1.38 3.07,-3.07 0,-1.69 -1.38,-3.07 -3.07,-3.07 z m 0,4.14 c -0.58,0 -1.07,-0.49 -1.07,-1.07 0,-0.58 0.49,-1.07 1.07,-1.07 0.58,0 1.07,0.49 1.07,1.07 0,0.58 -0.49,1.07 -1.07,1.07 z"
       id="path49"
       style="fill:#8a95aa;fill-opacity:1" />
    <path
       d="m 50.91,26.32 c 1.71,0 3.09,-1.39 3.09,-3.09 0,-1.7 -1.39,-3.1 -3.09,-3.1 -1.7,0 -3.09,1.39 -3.09,3.1 0,1.71 1.39,3.09 3.09,3.09 z m 0,-4.19 c 0.59,0 1.09,0.5 1.09,1.1 0,0.6 -0.5,1.09 -1.09,1.09 -0.29,0 -0.56,-0.11 -0.77,-0.32 -0.21,-0.21 -0.32,-0.48 -0.32,-0.77 0,-0.59 0.5,-1.1 1.09,-1.1 z"
       id="path51"
       style="fill:#8a95aa;fill-opacity:1" />
  </g>
  <g
     id="am"
     transform="matrix(0.47285347,0,0,0.5370566,-1.097612,-3.1525445)" />
  <g
     id="an"
     transform="matrix(0.47285347,0,0,0.5370566,-1.097612,-3.1525445)" />
  <g
     id="ao"
     transform="matrix(0.47285347,0,0,0.5370566,-1.097612,-3.1525445)" />
  <g
     id="ap"
     transform="matrix(0.47285347,0,0,0.5370566,-1.097612,-3.1525445)" />
  <g
     id="aq"
     transform="matrix(0.47285347,0,0,0.5370566,-1.097612,-3.1525445)" />
  <g
     id="ar"
     transform="matrix(0.47285347,0,0,0.5370566,-1.097612,-3.1525445)" />
  <g
     id="as"
     transform="matrix(0.47285347,0,0,0.5370566,-1.097612,-3.1525445)" />
  <g
     id="at"
     transform="matrix(0.47285347,0,0,0.5370566,-1.097612,-3.1525445)" />
  <g
     id="au"
     transform="matrix(0.47285347,0,0,0.5370566,-1.097612,-3.1525445)" />
  <g
     id="av"
     transform="matrix(0.47285347,0,0,0.5370566,-1.097612,-3.1525445)" />
  <g
     id="aw"
     transform="matrix(0.47285347,0,0,0.5370566,-1.097612,-3.1525445)" />
  <g
     id="ax"
     transform="matrix(0.47285347,0,0,0.5370566,-1.097612,-3.1525445)" />
</svg>
