<?xml version="1.0" encoding="UTF-8" standalone="no"?>
<svg
   inkscape:export-ydpi="576"
   inkscape:export-xdpi="576"
   inkscape:export-filename="D:\Project Real\Maret 1\export\line\png\27 - Setting folder.png"
   width="28pt"
   height="28pt"
   viewBox="0 0 9.8777775 9.8777775"
   version="1.1"
   id="svg831"
   inkscape:version="1.2.1 (9c6d41e410, 2022-07-14)"
   sodipodi:docname="icon_journal.svg"
   xmlns:inkscape="http://www.inkscape.org/namespaces/inkscape"
   xmlns:sodipodi="http://sodipodi.sourceforge.net/DTD/sodipodi-0.dtd"
   xmlns="http://www.w3.org/2000/svg"
   xmlns:svg="http://www.w3.org/2000/svg"
   xmlns:rdf="http://www.w3.org/1999/02/22-rdf-syntax-ns#"
   xmlns:cc="http://creativecommons.org/ns#"
   xmlns:dc="http://purl.org/dc/elements/1.1/">
  <defs
     id="defs825">
    <pattern
       id="EMFhbasepattern"
       patternUnits="userSpaceOnUse"
       width="6"
       height="6"
       x="0"
       y="0" />
    <pattern
       id="EMFhbasepattern-9"
       patternUnits="userSpaceOnUse"
       width="6"
       height="6"
       x="0"
       y="0" />
    <pattern
       id="EMFhbasepattern-0"
       patternUnits="userSpaceOnUse"
       width="6"
       height="6"
       x="0"
       y="0" />
    <pattern
       id="EMFhbasepattern-7"
       patternUnits="userSpaceOnUse"
       width="6"
       height="6"
       x="0"
       y="0" />
    <pattern
       id="EMFhbasepattern-2"
       patternUnits="userSpaceOnUse"
       width="6"
       height="6"
       x="0"
       y="0" />
    <pattern
       id="EMFhbasepattern-98"
       patternUnits="userSpaceOnUse"
       width="6"
       height="6"
       x="0"
       y="0" />
    <pattern
       id="EMFhbasepattern-6"
       patternUnits="userSpaceOnUse"
       width="6"
       height="6"
       x="0"
       y="0" />
    <pattern
       id="EMFhbasepattern-01"
       patternUnits="userSpaceOnUse"
       width="6"
       height="6"
       x="0"
       y="0" />
    <pattern
       id="EMFhbasepattern-07"
       patternUnits="userSpaceOnUse"
       width="6"
       height="6"
       x="0"
       y="0" />
    <pattern
       id="EMFhbasepattern-8"
       patternUnits="userSpaceOnUse"
       width="6"
       height="6"
       x="0"
       y="0" />
    <pattern
       id="EMFhbasepattern-4"
       patternUnits="userSpaceOnUse"
       width="6"
       height="6"
       x="0"
       y="0" />
    <pattern
       id="EMFhbasepattern-40"
       patternUnits="userSpaceOnUse"
       width="6"
       height="6"
       x="0"
       y="0" />
    <pattern
       id="EMFhbasepattern-08"
       patternUnits="userSpaceOnUse"
       width="6"
       height="6"
       x="0"
       y="0" />
    <pattern
       id="EMFhbasepattern-04"
       patternUnits="userSpaceOnUse"
       width="6"
       height="6"
       x="0"
       y="0" />
    <pattern
       id="EMFhbasepattern-014"
       patternUnits="userSpaceOnUse"
       width="6"
       height="6"
       x="0"
       y="0" />
    <pattern
       id="EMFhbasepattern-27"
       patternUnits="userSpaceOnUse"
       width="6"
       height="6"
       x="0"
       y="0" />
    <pattern
       id="EMFhbasepattern-09"
       patternUnits="userSpaceOnUse"
       width="6"
       height="6"
       x="0"
       y="0" />
    <pattern
       id="EMFhbasepattern-5"
       patternUnits="userSpaceOnUse"
       width="6"
       height="6"
       x="0"
       y="0" />
    <pattern
       id="EMFhbasepattern-018"
       patternUnits="userSpaceOnUse"
       width="6"
       height="6"
       x="0"
       y="0" />
  </defs>
  <sodipodi:namedview
     id="base"
     pagecolor="#ffffff"
     bordercolor="#666666"
     borderopacity="1.0"
     inkscape:pageopacity="0.0"
     inkscape:pageshadow="2"
     inkscape:zoom="17.07"
     inkscape:cx="13.913298"
     inkscape:cy="18.980668"
     inkscape:document-units="pt"
     inkscape:current-layer="layer1"
     showgrid="false"
     units="pt"
     inkscape:window-width="1920"
     inkscape:window-height="1017"
     inkscape:window-x="-8"
     inkscape:window-y="-8"
     inkscape:window-maximized="1"
     inkscape:pagecheckerboard="true"
     inkscape:showpageshadow="false"
     inkscape:object-paths="true"
     inkscape:snap-intersection-paths="true"
     inkscape:snap-smooth-nodes="true"
     inkscape:snap-midpoints="true"
     showguides="true"
     inkscape:snap-bbox="true"
     inkscape:bbox-nodes="true"
     inkscape:snap-nodes="false"
     inkscape:snap-global="true"
     inkscape:document-rotation="0"
     inkscape:deskcolor="#d1d1d1">
    <inkscape:grid
       type="xygrid"
       id="grid1378"
       originx="0"
       originy="0" />
    <sodipodi:guide
       position="0.97013834,8.9076435"
       orientation="78.000048,0"
       id="guide1380"
       inkscape:locked="false" />
    <sodipodi:guide
       position="0.97013834,-11.729869"
       orientation="0,78.000005"
       id="guide1382"
       inkscape:locked="false" />
    <sodipodi:guide
       position="21.60764,-11.729869"
       orientation="-78.000048,0"
       id="guide1384"
       inkscape:locked="false" />
    <sodipodi:guide
       position="21.60764,8.9076435"
       orientation="0,-78.000005"
       id="guide1386"
       inkscape:locked="false" />
  </sodipodi:namedview>
  <metadata
     id="metadata828">
    <rdf:RDF>
      <cc:Work
         rdf:about="">
        <dc:format>image/svg+xml</dc:format>
        <dc:type
           rdf:resource="http://purl.org/dc/dcmitype/StillImage" />
      </cc:Work>
    </rdf:RDF>
  </metadata>
  <g
     inkscape:label="Icon"
     inkscape:groupmode="layer"
     id="layer1"
     transform="translate(0,-274.42223)">
    <path
       sodipodi:nodetypes="csscccsscsscccccccccsscccccssscsccccccccccccccccccccccsscsssscssscccccccccscccccscccscccccscccsccccccccccccccccccccccccccccccccccccccccccccccccccccccccccscccccssssssssssssssssssssssssssssssssss"
       d="m 0.76959353,274.66172 c -0.28809292,0 -0.5252097,0.22762 -0.5252097,0.50415 v 1.7353 c 0,0.13961 0.0606829,0.26665 0.1576585,0.35831 -0.14753033,0.0897 -0.24715635,0.24647 -0.24715751,0.42496 v 5.73362 c 1.92e-6,0.27651 0.23711797,0.50415 0.5252097,0.50415 H 2.4882302 c 0.1406545,0 0.2684081,-0.0548 0.3630921,-0.1425 0.094685,0.0876 0.2224381,0.1425 0.3630923,0.1425 h 1.8081358 c 0.2880917,0 0.5252078,-0.22764 0.5252096,-0.50415 v -4.13313 l 1.2255964,4.39055 c 0.074566,0.2671 0.3647802,0.42804 0.6430554,0.35647 l 1.746664,-0.44912 c 0.2782762,-0.0716 0.4459366,-0.35046 0.3713737,-0.61756 L 7.9884407,277.427 c -0.074566,-0.26709 -0.3650987,-0.4277 -0.6433741,-0.35615 l -0.1216677,0.0312 c 0.02838,-0.0618 0.044903,-0.12949 0.044903,-0.20085 v -1.73532 c 0,-0.27652 -0.2371165,-0.50415 -0.5252094,-0.50415 z m 0,0.31306 H 6.7430982 c 0.1118256,0 0.1990705,0.0838 0.1990643,0.19109 v 1.7353 c 0,0.10723 -0.087238,0.19109 -0.1990643,0.19109 H 0.76959353 c -0.11182757,0 -0.19905676,-0.0839 -0.19906366,-0.19109 v -1.7353 c 0,-0.10723 0.0872367,-0.19109 0.19906366,-0.19109 z m 0.36213687,0.38155 c -0.089942,0 -0.16290041,0.07 -0.16307305,0.15626 v 1.04162 c -2.66e-6,0.0865 0.073008,0.15657 0.16307305,0.15657 0.090066,0 0.1630753,-0.0701 0.1630729,-0.15657 v -1.04162 c -1.796e-4,-0.0862 -0.073133,-0.15626 -0.1630729,-0.15626 z m 0.7242734,0 c -0.089818,1.6e-4 -0.1625819,0.07 -0.1627543,0.15626 v 1.04162 c -3e-6,0.0862 0.072814,0.15642 0.1627543,0.15657 0.090065,0 0.1630757,-0.0701 0.163073,-0.15657 v -1.04162 c -1.796e-4,-0.0862 -0.073132,-0.15626 -0.163073,-0.15626 z m 0.7229993,0 c -0.089942,0 -0.1629002,0.07 -0.1630729,0.15626 v 1.04162 c -2.7e-6,0.0865 0.073007,0.15657 0.1630729,0.15657 0.090066,0 0.1630754,-0.0701 0.163073,-0.15657 v -1.04162 c -1.795e-4,-0.0862 -0.073132,-0.15626 -0.163073,-0.15626 z m 3.2608233,4.4e-4 c -0.387509,0 -0.7058004,0.30524 -0.7058004,0.6772 0,0.37195 0.3182914,0.67597 0.7058004,0.67597 0.3875019,0 0.704208,-0.30402 0.704208,-0.67597 0,-0.37192 -0.3167061,-0.6772 -0.704208,-0.6772 z m 0,0.31309 c 0.2112359,0 0.3780621,0.16138 0.3780621,0.36411 0,0.20276 -0.1668262,0.36291 -0.3780621,0.36291 -0.2112426,0 -0.3796542,-0.16015 -0.3796542,-0.36291 0,-0.20276 0.1684116,-0.36411 0.3796542,-0.36411 z m 1.6692693,1.69769 c 0.076993,0.008 0.1426393,0.0625 0.1643465,0.14025 l 1.546009,5.53825 c 0.028944,0.10388 -0.032758,0.20641 -0.140778,0.2342 l -1.7466639,0.44909 c -0.108015,0.0276 -0.2147105,-0.0315 -0.2436544,-0.13511 l -1.5405944,-5.51899 v -0.12655 c 0.019684,-0.0597 0.066423,-0.10923 0.1353641,-0.1268 l 1.7463466,-0.44914 c 0.027,-0.006 0.05396,-0.007 0.079626,-0.005 z m -2.0505162,0.0376 h 0.5860436 c -0.1719399,0.0424 -0.3574102,0.0891 -0.5197951,0.14151 -0.015249,-0.0506 -0.03628,-0.0988 -0.066249,-0.14151 z m -4.77848498,0.088 H 2.4882302 c 0.1118244,0 0.1990631,0.0838 0.1990637,0.19108 v 5.73359 c -6e-7,0.10723 -0.087238,0.19111 -0.1990637,0.1911 H 0.68009452 c -0.11182458,0 -0.19906292,-0.0839 -0.19906363,-0.1911 v -5.73359 c 7.1e-7,-0.10724 0.0872381,-0.19108 0.19906363,-0.19108 z m 4.54151938,5.92469 c -5e-7,0.1071 -0.087238,0.1911 -0.1990635,0.19109 H 3.2144146 c -0.1118244,0 -0.1990628,-0.0839 -0.1990637,-0.19109 v -5.7336 c 9e-7,-0.10735 0.087238,-0.19106 0.1990637,-0.19108 h 1.8081358 c 0.1118244,0 0.199063,0.0838 0.1990635,0.19108 z m 0.9137822,-5.31627 c -0.086981,0.0224 -0.1385994,0.10823 -0.1152976,0.1917 0.023458,0.0835 0.1128138,0.13272 0.199701,0.11022 l 1.0481898,-0.26936 c 0.086981,-0.0223 0.1385997,-0.10823 0.1152976,-0.19169 -0.019717,-0.0706 -0.087655,-0.11869 -0.1817047,-0.11309 z m -5.0938019,-0.22583 c -0.0900646,2e-5 -0.16307551,0.0701 -0.16307289,0.15659 1.7282e-4,0.0862 0.0731315,0.15624 0.16307289,0.15624 h 1.0851364 c 0.089939,0 0.1629001,-0.07 0.1630729,-0.15624 2.5e-6,-0.0865 -0.073007,-0.15659 -0.1630729,-0.15659 z m 2.5343202,0 c -0.090065,2e-5 -0.1630755,0.0701 -0.163073,0.15659 1.794e-4,0.0862 0.073132,0.15624 0.163073,0.15624 h 1.085136 c 0.089939,0 0.1629003,-0.07 0.1630729,-0.15624 3.2e-6,-0.0865 -0.073007,-0.15659 -0.1630729,-0.15659 z m 2.7467612,0.89732 c -0.086981,0.0223 -0.1385995,0.10835 -0.1152977,0.1917 0.023312,0.0835 0.1127159,0.13304 0.1997011,0.11059 l 1.0481897,-0.26965 c 0.086981,-0.0225 0.1385983,-0.10835 0.1152976,-0.1917 -0.019684,-0.0703 -0.087455,-0.11831 -0.1815458,-0.11333 z m -5.2810814,-0.20208 c -0.0899417,0 -0.1629002,0.07 -0.16307289,0.15626 -2.62e-6,0.0865 0.0730069,0.15658 0.16307289,0.15658 h 1.0851364 c 0.090065,0 0.1630754,-0.0701 0.1630729,-0.15658 -1.794e-4,-0.0862 -0.073131,-0.15626 -0.1630729,-0.15626 z m 2.5343202,0 c -0.089942,0 -0.1629004,0.07 -0.163073,0.15626 -2.5e-6,0.0865 0.073007,0.15658 0.163073,0.15658 h 1.085136 c 0.090066,0 0.1630761,-0.0701 0.1630729,-0.15658 -1.79e-4,-0.0862 -0.073132,-0.15626 -0.1630729,-0.15626 z m 2.9340404,0.87255 c -0.086823,0.0224 -0.1383959,0.1081 -0.1152977,0.1914 0.023315,0.0835 0.1127159,0.13304 0.1997007,0.11059 l 1.0481898,-0.26935 c 0.086981,-0.0223 0.1385997,-0.10823 0.1152976,-0.19167 -0.019717,-0.0706 -0.087655,-0.11869 -0.1817055,-0.11333 z M 1.0415942,279.2647 c -0.0900646,2e-5 -0.16307551,0.0701 -0.16307289,0.15659 -2.62e-6,0.0864 0.0730069,0.15658 0.16307289,0.15658 h 1.0851364 c 0.090065,0 0.1630754,-0.0701 0.1630729,-0.15658 2.5e-6,-0.0865 -0.073007,-0.15659 -0.1630729,-0.15659 z m 2.5343202,0 c -0.090065,2e-5 -0.1630755,0.0701 -0.163073,0.15659 -2.5e-6,0.0864 0.073007,0.15658 0.163073,0.15658 h 1.085136 c 0.090066,0 0.1630761,-0.0701 0.1630729,-0.15658 3.2e-6,-0.0865 -0.073007,-0.15659 -0.1630729,-0.15659 z m 4.3013697,2.54245 c -0.046672,9.3e-4 -0.093672,0.008 -0.1404598,0.0217 -0.3743031,0.0963 -0.5981166,0.46987 -0.4978186,0.82914 0.1002983,0.35926 0.4882062,0.5741 0.8625032,0.47784 0.3742971,-0.0963 0.599698,-0.46895 0.4994112,-0.8282 -0.087755,-0.31436 -0.3969438,-0.51876 -0.723636,-0.50049 z m -6.2939178,0.0666 c -0.3875076,0 -0.70421194,0.30526 -0.70420799,0.67721 5.87e-6,0.37194 0.31670719,0.67596 0.70420799,0.67596 0.3875005,0 0.7054758,-0.30402 0.7054816,-0.67596 3.9e-6,-0.37195 -0.3179744,-0.67721 -0.7054816,-0.67721 z m 2.5343198,0 c -0.3875073,0 -0.7042116,0.30526 -0.7042079,0.67721 6e-6,0.37194 0.3167073,0.67596 0.7042079,0.67596 0.3875009,0 0.705794,-0.30402 0.7058003,-0.67596 3.6e-6,-0.37195 -0.3182929,-0.67721 -0.7058003,-0.67721 z m 3.7796636,0.24523 c 0.1768884,-0.0112 0.3407342,0.0981 0.3885719,0.26964 0.054669,0.19583 -0.064778,0.39236 -0.2688156,0.44483 -0.2040369,0.0524 -0.408426,-0.0607 -0.4631016,-0.25651 -0.054674,-0.19583 0.063183,-0.39327 0.2672232,-0.44575 0.025505,-0.006 0.050854,-0.0112 0.076122,-0.0133 z m -6.3139834,0.0675 c 0.2112385,0 0.3796561,0.16164 0.3796543,0.36442 -3.4e-6,0.20274 -0.1684197,0.36288 -0.3796543,0.36288 -0.2112351,0 -0.3780588,-0.16014 -0.378062,-0.36288 -2.2e-6,-0.20278 0.166823,-0.36442 0.378062,-0.36442 z m 2.5343198,0 c 0.2112389,0 0.3796571,0.16164 0.3796541,0.36442 -2.9e-6,0.20274 -0.1684195,0.36288 -0.3796541,0.36288 -0.2112348,0 -0.3780583,-0.16014 -0.3780617,-0.36288 -2.2e-6,-0.20278 0.1668231,-0.36442 0.3780617,-0.36442 z"
       style="color:#000000;font-style:normal;font-variant:normal;font-weight:normal;font-stretch:normal;font-size:medium;line-height:normal;font-family:sans-serif;font-variant-ligatures:normal;font-variant-position:normal;font-variant-caps:normal;font-variant-numeric:normal;font-variant-alternates:normal;font-variant-east-asian:normal;font-feature-settings:normal;font-variation-settings:normal;text-indent:0;text-align:start;text-decoration:none;text-decoration-line:none;text-decoration-style:solid;text-decoration-color:#000000;letter-spacing:normal;word-spacing:normal;text-transform:none;writing-mode:lr-tb;direction:ltr;text-orientation:mixed;dominant-baseline:auto;baseline-shift:baseline;text-anchor:start;white-space:normal;shape-padding:0;shape-margin:0;inline-size:0;clip-rule:nonzero;display:inline;overflow:visible;visibility:visible;isolation:auto;mix-blend-mode:normal;color-interpolation:sRGB;color-interpolation-filters:linearRGB;solid-color:#000000;solid-opacity:1;fill:#000000;fill-opacity:1;fill-rule:nonzero;stroke:none;stroke-width:0.201668;stroke-linecap:round;stroke-linejoin:round;stroke-miterlimit:4;stroke-dasharray:none;stroke-dashoffset:0;stroke-opacity:1;color-rendering:auto;image-rendering:auto;shape-rendering:auto;text-rendering:auto;enable-background:accumulate;stop-color:#000000"
       id="path1679" />
  </g>
</svg>
