<?xml version="1.0" encoding="UTF-8" standalone="no"?>
<svg
   inkscape:export-ydpi="576"
   inkscape:export-xdpi="576"
   inkscape:export-filename="/media/taufikramadhan/Data/Tr Design Studio/Project Design/TR Creative Design/Icon Design/Project Hiring/Icon Icons/007 - Design And Development/Send/1 - Line/SVG/28 - File Archive.png"
   width="30pt"
   height="30pt"
   viewBox="0 0 10.583333 10.583333"
   version="1.1"
   id="svg831"
   inkscape:version="1.2.1 (9c6d41e410, 2022-07-14)"
   sodipodi:docname="icon_logging.svg"
   xmlns:inkscape="http://www.inkscape.org/namespaces/inkscape"
   xmlns:sodipodi="http://sodipodi.sourceforge.net/DTD/sodipodi-0.dtd"
   xmlns="http://www.w3.org/2000/svg"
   xmlns:svg="http://www.w3.org/2000/svg"
   xmlns:rdf="http://www.w3.org/1999/02/22-rdf-syntax-ns#"
   xmlns:cc="http://creativecommons.org/ns#"
   xmlns:dc="http://purl.org/dc/elements/1.1/">
  <defs
     id="defs825">
    <pattern
       id="EMFhbasepattern"
       patternUnits="userSpaceOnUse"
       width="6"
       height="6"
       x="0"
       y="0" />
    <pattern
       id="EMFhbasepattern-9"
       patternUnits="userSpaceOnUse"
       width="6"
       height="6"
       x="0"
       y="0" />
    <pattern
       id="EMFhbasepattern-0"
       patternUnits="userSpaceOnUse"
       width="6"
       height="6"
       x="0"
       y="0" />
    <pattern
       id="EMFhbasepattern-7"
       patternUnits="userSpaceOnUse"
       width="6"
       height="6"
       x="0"
       y="0" />
    <pattern
       id="EMFhbasepattern-2"
       patternUnits="userSpaceOnUse"
       width="6"
       height="6"
       x="0"
       y="0" />
    <pattern
       id="EMFhbasepattern-98"
       patternUnits="userSpaceOnUse"
       width="6"
       height="6"
       x="0"
       y="0" />
    <pattern
       id="EMFhbasepattern-6"
       patternUnits="userSpaceOnUse"
       width="6"
       height="6"
       x="0"
       y="0" />
    <pattern
       id="EMFhbasepattern-01"
       patternUnits="userSpaceOnUse"
       width="6"
       height="6"
       x="0"
       y="0" />
    <pattern
       id="EMFhbasepattern-07"
       patternUnits="userSpaceOnUse"
       width="6"
       height="6"
       x="0"
       y="0" />
    <pattern
       id="EMFhbasepattern-8"
       patternUnits="userSpaceOnUse"
       width="6"
       height="6"
       x="0"
       y="0" />
    <pattern
       id="EMFhbasepattern-4"
       patternUnits="userSpaceOnUse"
       width="6"
       height="6"
       x="0"
       y="0" />
    <pattern
       id="EMFhbasepattern-40"
       patternUnits="userSpaceOnUse"
       width="6"
       height="6"
       x="0"
       y="0" />
    <pattern
       id="EMFhbasepattern-08"
       patternUnits="userSpaceOnUse"
       width="6"
       height="6"
       x="0"
       y="0" />
    <pattern
       id="EMFhbasepattern-04"
       patternUnits="userSpaceOnUse"
       width="6"
       height="6"
       x="0"
       y="0" />
    <pattern
       id="EMFhbasepattern-014"
       patternUnits="userSpaceOnUse"
       width="6"
       height="6"
       x="0"
       y="0" />
    <pattern
       id="EMFhbasepattern-27"
       patternUnits="userSpaceOnUse"
       width="6"
       height="6"
       x="0"
       y="0" />
    <pattern
       id="EMFhbasepattern-09"
       patternUnits="userSpaceOnUse"
       width="6"
       height="6"
       x="0"
       y="0" />
    <pattern
       id="EMFhbasepattern-5"
       patternUnits="userSpaceOnUse"
       width="6"
       height="6"
       x="0"
       y="0" />
    <pattern
       id="EMFhbasepattern-018"
       patternUnits="userSpaceOnUse"
       width="6"
       height="6"
       x="0"
       y="0" />
  </defs>
  <sodipodi:namedview
     id="base"
     pagecolor="#ffffff"
     bordercolor="#666666"
     borderopacity="1.0"
     inkscape:pageopacity="0.0"
     inkscape:pageshadow="2"
     inkscape:zoom="4.2757863"
     inkscape:cx="14.85107"
     inkscape:cy="23.855261"
     inkscape:document-units="pt"
     inkscape:current-layer="layer1"
     showgrid="false"
     units="pt"
     inkscape:window-width="1920"
     inkscape:window-height="1017"
     inkscape:window-x="-8"
     inkscape:window-y="-8"
     inkscape:window-maximized="1"
     inkscape:pagecheckerboard="true"
     inkscape:showpageshadow="false"
     inkscape:object-paths="true"
     inkscape:snap-intersection-paths="true"
     inkscape:snap-smooth-nodes="true"
     inkscape:snap-midpoints="true"
     showguides="false"
     inkscape:snap-bbox="true"
     inkscape:bbox-nodes="true"
     inkscape:snap-nodes="false"
     inkscape:snap-global="true"
     inkscape:document-rotation="0"
     inkscape:deskcolor="#d1d1d1">
    <inkscape:grid
       type="xygrid"
       id="grid1378"
       originx="0"
       originy="0" />
    <sodipodi:guide
       position="0.9701383,9.6131987"
       orientation="78.000048,0"
       id="guide1380"
       inkscape:locked="false" />
    <sodipodi:guide
       position="0.9701383,-11.024313"
       orientation="0,78.000005"
       id="guide1382"
       inkscape:locked="false" />
    <sodipodi:guide
       position="21.607639,-11.024313"
       orientation="-78.000048,0"
       id="guide1384"
       inkscape:locked="false" />
    <sodipodi:guide
       position="21.607639,9.6131987"
       orientation="0,-78.000005"
       id="guide1386"
       inkscape:locked="false" />
  </sodipodi:namedview>
  <metadata
     id="metadata828">
    <rdf:RDF>
      <cc:Work
         rdf:about="">
        <dc:format>image/svg+xml</dc:format>
        <dc:type
           rdf:resource="http://purl.org/dc/dcmitype/StillImage" />
      </cc:Work>
    </rdf:RDF>
  </metadata>
  <g
     inkscape:label="Icon"
     inkscape:groupmode="layer"
     id="layer1"
     transform="translate(0,-274.42223)">
    <path
       id="path122942"
       style="color:#000000;clip-rule:evenodd;display:inline;fill:#8a95aa;fill-opacity:1;fill-rule:evenodd;stroke-width:0.512766;stroke-linecap:round;stroke-linejoin:round;stroke-miterlimit:1.5;-inkscape-stroke:none"
       d="m 10.272941,277.16457 c 0,-0.0977 -0.08236,-0.15932 -0.182587,-0.15932 H 9.7785105 c 0.00109,-0.60703 0.00268,-1.10498 0.00711,-1.87445 0,-0.19465 -0.182878,-0.35699 -0.403835,-0.35699 l -2.8676857,1.1e-4 c -0.2209566,0 -0.4038362,0.16235 -0.4038362,0.35699 v 0.15863 l -1.9612784,-10e-4 c -0.056057,-3e-5 -0.1090008,0.0227 -0.1434905,0.0616 l -0.779967,0.8845 c -0.024999,0.0279 -0.038745,0.0624 -0.039068,0.0979 v 0.32884 h -0.206712 c -0.056057,-3e-5 -0.1090009,0.0227 -0.1434905,0.0616 l -0.7799652,0.8845 c -0.024491,0.0281 -0.037731,0.0625 -0.03765,0.0979 v 0.3279 l -0.3061607,-3.2e-4 c -0.056303,3.2e-4 -0.10929,0.0235 -0.1434905,0.0629 l -0.77854501,0.88451 c -0.0250005,0.0279 -0.0387451,0.0624 -0.0390707,0.0979 v 1.01591 h -0.2081327 c -0.10042844,3.2e-4 -0.1815226,0.0724 -0.18113886,0.16082 v 4.29017 c -3.6374e-4,0.0885 0.0807104,0.16046 0.18113886,0.16082 H 6.7787073 c 0.030026,-1.1e-4 0.059562,-0.007 0.085951,-0.0194 1.223e-4,0 1.819e-4,0 3.633e-4,0 1.223e-4,-1.1e-4 1.824e-4,-1.6e-4 3.644e-4,-3.2e-4 0.016603,-0.008 0.031693,-0.0181 0.04475,-0.03 l 3.312012,-3.06057 c 0.03259,-0.0298 0.05079,-0.0697 0.05079,-0.11107 0,-1.43997 0,-2.87993 0,-4.31989 z m -3.7588402,-2.07026 h 2.8676879 c 0.025765,0 0.040133,0.014 0.040133,0.0366 -0.00421,0.93619 -0.00711,1.61975 -0.0082,2.43266 l -0.8044736,0.75028 c 0.00109,-0.62789 0.00235,-0.97201 0.00711,-1.81 0,-0.19465 -0.1828774,-0.35699 -0.4038339,-0.35699 H 5.3451887 c -0.2209571,0 -0.4041891,0.16234 -0.4041891,0.35699 v 0.15863 l -1.3908682,-0.001 v -0.27471 l 0.6872654,-0.77813 2.0539806,0.001 c 0.1009828,3.2e-4 0.1829425,-0.0719 0.182559,-0.16082 v -0.3182 c 0,-0.0227 0.014363,-0.0366 0.040139,-0.0366 z m -1.1692383,1.3729 h 2.8676877 c 0.025765,0 0.040133,0.014 0.040133,0.0366 -0.0057,0.99399 -0.00681,1.20179 -0.00817,2.1501 l -0.9025013,0.84163 c 0.00142,-0.60997 0.00366,-0.76481 0.00853,-1.61882 v -3.2e-4 -3.3e-4 -3.1e-4 c 0,-0.19465 -0.184299,-0.35606 -0.4052561,-0.35606 H 4.0790231 c -0.2209567,0 -0.4052544,0.16141 -0.4052544,0.35606 v 0.15831 l -1.2914198,-10e-4 v -0.27345 l 0.6858451,-0.77813 2.0539801,10e-4 c 0.100985,3.3e-4 0.1829469,-0.0719 0.1825611,-0.16081 v -0.3182 c 0,-0.0227 0.014363,-0.0366 0.040133,-0.0366 z m 4.564362,1.10071 v 3.85276 l -2.9493781,2.72548 v -3.82774 c 0.9834114,-0.9166 1.9656772,-1.83415 2.9493781,-2.7505 z m -5.8302087,0.2722 h 2.8662676 c 0.025765,0 0.041554,0.0129 0.041554,0.0357 -0.00564,0.9922 -0.00687,1.02899 -0.00817,1.95861 l -0.2784593,0.25969 H 1.1150786 v -0.96147 l 0.6872654,-0.77938 c 0.6846212,0.002 1.3680805,4.8e-4 2.0539839,10e-4 0.099876,-3.2e-4 0.1807424,-0.0716 0.1811407,-0.15957 v -0.31913 c 0,-0.0227 0.015784,-0.0357 0.041554,-0.0357 z m 4.2493221,1.91105 c -0.045307,0.002 -0.088123,0.0188 -0.1200507,0.0472 l -0.7785443,0.68583 c -0.03432,0.03 -0.053622,0.0709 -0.053633,0.11358 v 0.85853 c 0.00131,0.14186 0.1958457,0.21233 0.3100688,0.11232 l 0.7799658,-0.68582 c 0.034315,-0.0301 0.053622,-0.0709 0.053628,-0.11358 v -0.85853 c -1.814e-4,-0.0648 -0.044635,-0.12302 -0.1125907,-0.14768 -0.024956,-0.009 -0.05189,-0.0131 -0.078848,-0.0119 z m -0.1722612,0.54629 v 0.40549 l -0.4162651,0.36668 v -0.40548 z m -7.43027328,0.11701 H 6.5961462 v 3.97104 H 0.72580342 Z m 1.59189778,1.56564 c -0.023745,0.002 -0.046914,0.007 -0.068194,0.0166 -0.089788,0.0398 -0.1259001,0.13622 -0.080625,0.21526 l 0.2844951,0.4956 c 0.031207,0.0538 0.094102,0.0875 0.1626702,0.0873 h 2.2482617 c 0.065371,1.7e-4 0.1258489,-0.0305 0.158409,-0.0804 l 0.3235647,-0.49403 c 0.050503,-0.0765 0.021088,-0.17452 -0.065707,-0.21901 -0.041772,-0.0214 -0.091483,-0.0272 -0.1381627,-0.0163 -0.046432,0.011 -0.086024,0.0378 -0.1101043,0.0745 L 4.7598882,282.4745 H 2.7272181 l -0.2333498,-0.40675 c -0.033164,-0.0579 -0.1027234,-0.0925 -0.1761671,-0.0876 z"
       sodipodi:nodetypes="ccccccscccccccccccccccccccccccccccccsccccsssccccccscccscccsccssssccccccsccccccccsccccccccsccsccccccccsssccccccccccccccccccccccccc" />
  </g>
</svg>
