<?xml version="1.0" encoding="UTF-8" standalone="no"?>
<svg
   version="1.0"
   width="120pt"
   height="22pt"
   viewBox="0 0 120 22"
   preserveAspectRatio="xMidYMid"
   id="svg1981"
   sodipodi:docname="logo_top_100x22.svg"
   inkscape:version="1.2.1 (9c6d41e410, 2022-07-14)"
   xmlns:inkscape="http://www.inkscape.org/namespaces/inkscape"
   xmlns:sodipodi="http://sodipodi.sourceforge.net/DTD/sodipodi-0.dtd"
   xmlns="http://www.w3.org/2000/svg"
   xmlns:svg="http://www.w3.org/2000/svg">
  <defs
     id="defs1985" />
  <sodipodi:namedview
     id="namedview1983"
     pagecolor="#ffffff"
     bordercolor="#000000"
     borderopacity="0.25"
     inkscape:showpageshadow="2"
     inkscape:pageopacity="0.0"
     inkscape:pagecheckerboard="0"
     inkscape:deskcolor="#d1d1d1"
     inkscape:document-units="pt"
     showgrid="false"
     inkscape:zoom="4.8142857"
     inkscape:cx="88.486647"
     inkscape:cy="51.097923"
     inkscape:window-width="1920"
     inkscape:window-height="1017"
     inkscape:window-x="-8"
     inkscape:window-y="-8"
     inkscape:window-maximized="1"
     inkscape:current-layer="svg1981" />
  <path
     style="fill:#81b4fe;stroke:none;stroke-width:0.10987;stroke-linecap:round;stroke-linejoin:round;stroke-miterlimit:0"
     d="M 4.9923285,20.319963 C 5.0560045,19.988207 5.7127438,18.06749 6.6010391,15.615091 L 7.3220036,13.624656 6.5741298,12.741471 C 4.8279117,10.679316 4.0059536,9.0950328 3.035758,5.9214292 2.7884938,5.1126053 2.5982566,4.4374999 2.6130083,4.4211948 2.6277608,4.4048904 2.7775006,4.523197 2.945764,4.6841009 3.7991158,5.5001259 4.8899003,6.194695 6.3139557,6.8288325 7.8005895,7.4908354 8.5631858,7.9607042 9.3882506,8.723036 c 0.8828204,0.8156955 1.0592944,0.9386978 1.5894584,1.1078434 0.539602,0.1721596 1.177756,0.1094275 2.005712,-0.1971639 0.340513,-0.1260914 0.633008,-0.2292569 0.649986,-0.2292569 0.01698,0 0.03087,0.1001179 0.03087,0.222485 0,0.3280451 -0.187568,0.5216274 -0.715721,0.7386764 -0.409849,0.168428 -0.584474,0.19392 -1.328526,0.19392 -1.374844,0 -1.413494,-0.01828 -4.4253304,-2.093698 C 6.0313823,7.664218 5.0662046,7.0231255 5.0498601,7.0411907 5.0128861,7.0820557 5.9187735,8.02214 6.6623098,8.7145128 c 0.7283828,0.6782618 1.9678385,1.6501182 2.5985701,2.0375392 0.2758074,0.169413 0.5015434,0.329507 0.5016369,0.355767 3.355e-4,0.10324 -0.644648,0.23948 -0.970133,0.204914 C 8.0622373,11.235189 6.8433747,10.21211 5.2340501,8.3259692 4.6784217,7.6747664 4.0299848,6.9152079 3.7930804,6.6380601 3.3421807,6.1105652 3.1909035,6.0549014 3.3916576,6.4903519 3.5753958,6.8888917 4.5131681,8.3814 4.956538,8.9809294 c 0.5328789,0.7205659 1.7727536,2.0376016 2.9250222,3.1070576 0.5173096,0.48013 0.9680383,0.915225 1.0016187,0.966876 0.039598,0.06091 -0.049112,0.308701 -0.2524675,0.705176 -0.6296308,1.227571 -2.0133036,4.269331 -1.9911622,4.377214 0.013022,0.06344 0.4104683,-0.388623 0.9284903,-1.056078 1.2177202,-1.568991 2.9843045,-3.516182 4.2151155,-4.646052 1.977313,-1.815152 2.338065,-1.981878 1.115588,-0.515584 -0.382725,0.459058 -0.696245,0.860641 -0.696713,0.892406 -0.0022,0.155279 0.213136,-0.0032 0.927592,-0.682034 1.459473,-1.386887 2.984031,-2.3466376 5.620664,-3.538356 3.502603,-1.5831253 6.690834,-2.4630705 10.206849,-2.8170683 1.495483,-0.1505679 4.342771,-0.1310077 5.364692,0.036854 3.067652,0.5038965 4.856066,1.4015001 6.993133,3.5098498 0.626578,0.6181629 1.503696,1.7096095 1.94456,2.4197405 l 0.327081,0.526849 -0.215152,0.204701 c -0.118341,0.112587 -0.284991,0.26727 -0.370337,0.343743 -0.124664,0.111691 -0.138759,0.160914 -0.07167,0.250266 0.04592,0.06118 0.173735,0.111228 0.284,0.111228 0.110272,0 0.200486,0.03318 0.200486,0.07372 0,0.09224 -0.820655,0.819847 -1.334287,1.183002 -0.685114,0.484393 -2.29893,1.334014 -3.264022,1.718393 -0.848425,0.337915 -0.995162,0.373693 -1.497934,0.365221 -1.514625,-0.02552 -3.028783,-0.966771 -3.453424,-2.146758 -0.147217,-0.409084 -0.166372,-0.585579 -0.167137,-1.540106 -7.71e-4,-0.915297 0.02366,-1.164778 0.161538,-1.652298 0.286643,-1.013506 0.7897,-2.0019641 1.469625,-2.887684 0.334502,-0.4357452 0.431319,-0.6578778 0.286739,-0.6578778 -0.12881,0 -1.178121,0.9293529 -1.548356,1.3713469 -0.818975,0.9777063 -1.190971,1.8326469 -1.31224,3.0158559 -0.121996,1.190271 0.04404,1.931065 0.621574,2.773228 0.168156,0.245207 0.256264,0.434788 0.209987,0.451838 -0.128915,0.04749 -1.000826,-0.360652 -1.438735,-0.673478 -0.65972,-0.471285 -0.994323,-0.960125 -1.455183,-2.125958 -0.09788,-0.247607 -0.121189,0.794661 -0.02575,1.151327 0.153043,0.571935 1.424659,1.846256 2.024713,2.029021 l 0.237358,0.0723 -0.209015,0.09323 c -0.114958,0.05127 -0.506861,0.16178 -0.870891,0.24558 -0.364033,0.0838 -0.755934,0.192982 -0.870892,0.242628 -0.316027,0.136485 -1.099418,0.08529 -2.098273,-0.137141 -0.840043,-0.18706 -1.594933,-0.453113 -5.461066,-1.924714 -3.119225,-1.187297 -5.516485,-1.634763 -7.686755,-1.434794 -1.552051,0.143008 -3.418587,0.608092 -4.288511,1.068568 -0.31659,0.16758 -0.677672,0.531327 -1.8893247,1.903267 -2.5940751,2.937239 -4.3663032,4.811663 -4.5515901,4.814061 -0.031785,3.69e-4 -0.036173,-0.111875 -0.00976,-0.249522 z M 40.4734,13.177195 c 1.049443,-0.498983 1.287608,-1.715487 0.507082,-2.590126 -0.650808,-0.7292895 -1.654339,-0.6909119 -2.439696,0.09329 -0.376981,0.376432 -0.561215,0.781023 -0.561215,1.232463 0,1.162473 1.310614,1.82695 2.493829,1.264366 z"
     id="path3018" />
  <path
     style="fill:#81b4fe;stroke:none;stroke-width:0.10987;stroke-linecap:round;stroke-linejoin:round;stroke-miterlimit:0"
     d="m 21.983899,6.2189258 c -0.01792,-0.051601 0.04668,-0.39606 0.143524,-0.7654663 0.09686,-0.369406 0.1761,-0.7842393 0.1761,-0.9218514 0,-0.2747842 0.214573,-0.1096914 -3.562132,-2.7407146 C 18.065912,1.3203242 17.438871,0.86332223 17.347965,0.77533274 L 17.182682,0.6153519 17.67038,0.6617066 c 1.961211,0.18641036 8.555973,1.9699066 13.61067,3.680887 1.598135,0.5409574 1.593423,0.5542185 -0.164105,0.4617148 -0.613108,-0.032269 -1.766335,-0.028889 -2.562726,0.00752 l -1.447985,0.066181 -0.36347,-0.3135022 c -0.380712,-0.3283752 -0.511476,-0.3102028 -0.264545,0.036763 0.07971,0.1120013 0.144927,0.2298547 0.144927,0.2618973 0,0.1059982 -0.536316,0.2976089 -0.705127,0.2519233 -0.09117,-0.024673 -0.698752,-0.4161923 -1.350177,-0.8700436 -1.339331,-0.9331154 -2.296783,-1.5292357 -2.256577,-1.4049654 0.03286,0.1015342 1.209367,1.1957788 1.979198,1.8407984 0.564437,0.4729263 0.775488,0.6949643 0.719445,0.7569063 -0.03378,0.037329 -1.887148,0.5897133 -2.565401,0.7645955 -0.331863,0.085567 -0.435355,0.089286 -0.460608,0.016547 z"
     id="path3020" />
  <path
     style="fill:#81b4fe;stroke:none;stroke-width:0.10987;stroke-linecap:round;stroke-linejoin:round;stroke-miterlimit:0"
     d="m 26.123407,17.714113 c -0.784792,-1.028689 -2.295846,-1.883181 -4.669993,-2.640855 -2.003254,-0.639309 -3.6128,-1.00484 -5.3294,-1.210323 -0.83616,-0.100094 -1.035589,-0.169648 -0.857295,-0.299009 0.136716,-0.09918 2.436096,-0.09928 3.21908,-9.3e-5 1.10827,0.140356 3.431965,0.901876 5.38533,1.764878 0.865961,0.382585 3.100372,1.536742 3.100372,1.601461 0,0.07305 -0.481929,1.17592 -0.513854,1.17592 -0.01938,0 -0.16978,-0.176377 -0.33424,-0.391948 z"
     id="path3022" />
  <path
     style="fill:#81b4fe;stroke:none;stroke-width:0.10987;stroke-linecap:round;stroke-linejoin:round;stroke-miterlimit:0"
     d="m 29.943762,19.3976 c 0.02347,-1.027994 0.06865,-1.925247 0.100437,-1.9939 0.101775,-0.219845 1.745616,-1.082277 1.847737,-0.969407 0.02218,0.02452 -0.108211,0.220112 -0.289773,0.434646 -0.181561,0.214535 -0.314201,0.390063 -0.294759,0.390063 0.01945,0 0.457552,-0.242317 0.973575,-0.538483 0.758548,-0.435362 1.006461,-0.541766 1.294546,-0.55562 0.195977,-0.0094 0.380483,0.0095 0.41001,0.0422 0.06453,0.07132 -0.24609,0.711886 -0.604314,1.246231 -0.64612,0.963782 -2.884198,3.455875 -3.359896,3.741231 -0.112852,0.0677 -0.117604,-0.04236 -0.07757,-1.796964 z m 1.888179,-1.790585 c 0.455418,-0.378379 0.615091,-0.559194 0.553721,-0.627027 -0.120734,-0.133443 -1.094538,0.668141 -1.094538,0.900965 0,0.134398 0.126415,0.07037 0.540817,-0.273938 z m 1.027018,-0.810458 c 0.05604,-0.100205 -0.07785,-0.09792 -0.250613,0.0043 -0.07519,0.04447 -0.118256,0.113876 -0.0957,0.154217 0.04428,0.07919 0.271568,-0.02483 0.346311,-0.158496 z"
     id="path3024" />
  <path
     style="fill:#81b4fe;stroke:none;stroke-width:0.10987;stroke-linecap:round;stroke-linejoin:round;stroke-miterlimit:0"
     d="m 34.147648,17.362857 c 0,-0.07839 0.42485,-0.950912 0.463017,-0.950912 0.02363,0 0.293284,0.147272 0.599208,0.327271 l 0.556226,0.327273 -0.478286,0.122982 c -0.503584,0.129488 -1.140165,0.226293 -1.140165,0.173386 z"
     id="path3026" />
  <path
     style="fill:#81b4fe;stroke:none;stroke-width:0.192787;stroke-linecap:round;stroke-linejoin:round;stroke-miterlimit:0"
     d="m 45.97377,15.093499 c -0.129086,-0.108868 2.201856,-7.0062426 2.84175,-8.4089275 0.272325,-0.5969446 0.34711,-0.6686379 0.656072,-0.628926 0.212931,0.027374 0.431357,0.1877138 0.560963,0.4117867 0.161456,0.2791636 3.041964,8.5174918 3.041964,8.7001218 0,0.115589 -1.29889,0.01219 -1.489056,-0.118484 -0.124718,-0.08574 -0.323677,-0.44629 -0.442094,-0.801193 l -0.215315,-0.645289 h -1.516933 -1.516925 l -0.134392,0.576185 c -0.196042,0.840558 -0.39076,1.026569 -1.071929,1.023979 -0.322982,-0.0012 -0.644332,-0.0504 -0.714119,-0.109275 z m 3.897308,-3.330792 c 0.336711,-0.115911 0.322791,-0.40472 -0.07733,-1.605417 L 49.461246,9.1595844 49.056677,10.296618 c -0.222514,0.625366 -0.404565,1.194594 -0.404565,1.264954 0,0.113676 0.282711,0.209531 0.793769,0.269136 0.09356,0.01083 0.284908,-0.01964 0.425238,-0.068 z"
     id="path3028" />
  <path
     style="fill:#81b4fe;stroke:none;stroke-width:0.192787;stroke-linecap:round;stroke-linejoin:round;stroke-miterlimit:0"
     d="m 57.950557,16.297526 c 0,-0.841256 -0.01915,-1.529556 -0.04247,-1.529556 -0.02335,0 -0.259384,0.0983 -0.524536,0.218506 -1.143029,0.518068 -2.503134,0.04799 -3.108608,-1.074405 -0.542478,-1.005592 -0.594227,-3.117332 -0.09459,-3.859128 0.35196,-0.5225196 0.757258,-0.9674956 1.098794,-1.2063296 0.445371,-0.311451 1.545423,-0.300363 2.345555,0.02363 0.628096,0.254343 0.636976,0.253791 0.877056,-0.05461 0.133412,-0.171361 0.37011,-0.311569 0.526033,-0.311569 h 0.283484 v 4.6615136 4.661511 h -0.680377 -0.680376 z m -0.886554,-2.694938 c 0.125857,0 0.402348,-0.222878 0.614395,-0.495282 0.315952,-0.405874 0.385552,-0.605628 0.385552,-1.106485 0,-1.149377 -0.612489,-1.894363 -1.557438,-1.894363 -0.343683,0 -0.547721,0.11305 -0.890032,0.493191 -0.407239,0.452224 -0.444135,0.554296 -0.444135,1.22865 0,0.61662 0.05425,0.808236 0.335933,1.185891 0.337253,0.452219 0.894062,0.759042 1.175842,0.647943 0.08311,-0.03274 0.254009,-0.05954 0.379883,-0.05954 z"
     id="path3030" />
  <path
     style="fill:#81b4fe;stroke:none;stroke-width:0.192787;stroke-linecap:round;stroke-linejoin:round;stroke-miterlimit:0"
     d="M 61.926062,14.887638 C 61.01038,14.272797 60.861405,13.709769 60.728424,10.361384 l -0.07374,-1.8573246 h 0.673718 0.673714 l 0.07894,1.8573246 c 0.127861,3.007593 0.245321,3.282829 1.401014,3.282829 0.452394,0 0.666673,-0.07298 0.829861,-0.282614 0.280943,-0.36091 0.440881,-1.60542 0.441726,-3.4372346 l 7.28e-4,-1.420305 h 0.737076 0.737075 v 3.3504636 3.350462 h -0.399322 c -0.327553,0 -0.423383,-0.072 -0.53324,-0.400599 -0.07367,-0.220329 -0.144418,-0.421898 -0.157253,-0.447928 -0.01281,-0.02604 -0.234871,0.132518 -0.493418,0.352304 -0.385199,0.327471 -0.627688,0.410239 -1.342809,0.458343 -0.747577,0.05028 -0.944944,0.01016 -1.376368,-0.279467 z"
     id="path3032" />
  <path
     style="fill:#81b4fe;stroke:none;stroke-width:0.192787;stroke-linecap:round;stroke-linejoin:round;stroke-miterlimit:0"
     d="m 69.006679,14.998934 c -0.420329,-0.151106 -0.6878,-0.375087 -1.034091,-0.865979 -1.187887,-1.683912 -0.775206,-4.2063556 0.8621,-5.2693946 0.590778,-0.383571 1.741568,-0.353693 2.365865,0.06143 0.508975,0.338442 0.811122,0.324813 0.811122,-0.0366 0,-0.226845 0.236134,-0.384336 0.576253,-0.384336 0.208126,0 0.217525,0.14474 0.217525,3.3504656 0,3.205728 -0.0094,3.350464 -0.217525,3.350464 -0.333808,0 -0.576253,-0.156151 -0.576253,-0.371171 0,-0.360975 -0.232196,-0.381882 -0.655761,-0.05905 -0.52894,0.40316 -1.573927,0.502872 -2.349235,0.224164 z m 1.944012,-1.708696 c 0.440788,-0.339964 0.762273,-1.158907 0.666353,-1.69747 -0.299773,-1.6831936 -2.216552,-2.0083036 -2.831649,-0.480282 -0.220048,0.546639 -0.221947,0.932717 -0.0074,1.466148 0.434376,1.079076 1.319959,1.369146 2.172509,0.711604 z"
     id="path3034" />
  <path
     style="fill:#af83f8;stroke:none;stroke-width:0.192787;stroke-linecap:round;stroke-linejoin:round;stroke-miterlimit:0"
     d="m 74.507937,14.658716 c 0.0026,-0.988325 0.09552,-1.201796 0.52196,-1.201796 h 0.383664 V 10.470637 7.4843539 h -0.317506 c -0.429988,0 -0.589664,-0.2445732 -0.589664,-0.903168 V 6.0276317 h 1.700946 1.700938 V 6.52557 c 0,0.7845446 -0.09494,0.9587839 -0.522414,0.9587839 h -0.384756 v 2.9862831 2.986283 h 0.384756 c 0.44345,0 0.522414,0.166951 0.522414,1.104455 v 0.64361 h -1.700938 -1.700946 z"
     id="path3105" />
  <path
     style="fill:#af83f8;stroke:none;stroke-width:0;stroke-linecap:round;stroke-linejoin:round;stroke-miterlimit:0;stroke-dasharray:none"
     d="M 79.609222,11.854523 V 8.5040594 l 0.368538,0.0022 c 0.481705,0.0029 0.623271,0.132298 0.670141,0.612436 l 0.03855,0.395212 0.479221,-0.415042 c 1.119215,-0.969329 2.877884,-0.607686 3.483324,0.716294 0.205041,0.4483916 0.237673,0.8035616 0.271022,2.9497816 l 0.03788,2.44001 h -0.617606 -0.617604 l -0.05961,-2.075829 c -0.03277,-1.141705 -0.09244,-2.177626 -0.132586,-2.302049 -0.113579,-0.352026 -0.684205,-0.720651 -1.115529,-0.720651 -0.52609,0 -1.129008,0.544105 -1.296927,1.170422 -0.07439,0.277646 -0.138221,1.275051 -0.141735,2.216459 l -0.0068,1.711648 h -0.680385 -0.680374 z"
     id="path3133" />
  <path
     style="fill:#af83f8;stroke:none;stroke-width:0;stroke-linecap:round;stroke-linejoin:round;stroke-miterlimit:0;stroke-dasharray:none"
     d="m 86.751632,12.983481 c -0.0017,-2.552156 -0.03779,-2.821566 -0.3926,-2.93596 -0.44313,-0.1428786 -0.441265,-1.4150966 0.0026,-1.5231306 0.316931,-0.07721 0.388219,-0.285288 0.390183,-1.1388849 0.0026,-0.9669276 0.202139,-1.2564225 0.778311,-1.127053 0.524402,0.1177477 0.697129,0.4004307 0.699311,1.1444896 0.0017,0.6896063 0.09394,0.9177853 0.464875,1.1540873 0.469794,0.299267 0.377,1.5494286 -0.114987,1.5494286 -0.270612,0 -0.351618,0.742948 -0.351618,3.225118 v 1.873409 h -0.737066 -0.737078 z"
     id="path3135" />
  <path
     style="fill:#af83f8;stroke:none;stroke-width:0;stroke-linecap:round;stroke-linejoin:round;stroke-miterlimit:0;stroke-dasharray:none"
     d="m 91.345728,15.059598 c -0.514153,-0.207727 -1.194486,-1.000185 -1.429616,-1.665211 -0.281681,-0.796715 -0.280568,-2.286121 0.0026,-3.086332 0.421536,-1.1924596 1.337116,-1.7242026 2.819876,-1.6377016 1.038692,0.0606 1.295899,0.233435 1.87401,1.259283 0.286238,0.5079156 0.36057,0.8000036 0.398543,1.5659736 l 0.04666,0.941602 -1.912601,0.0022 c -1.051922,0.0012 -1.977895,0.05546 -2.057703,0.120516 -0.112469,0.09169 -0.09292,0.203529 0.08683,0.49708 0.341877,0.558338 0.91186,0.748385 1.861986,0.620839 1.104486,-0.148262 1.207229,-0.133111 1.476075,0.217771 l 0.235505,0.30737 -0.264206,0.278841 c -0.145323,0.153374 -0.451491,0.345576 -0.680384,0.427137 -0.615433,0.219298 -2.067044,0.308264 -2.457293,0.150581 z m 2.243291,-3.927368 c 0.150503,-0.174663 -0.04331,-0.588745 -0.380369,-0.812653 -0.324813,-0.21577 -1.29425,-0.288663 -1.631054,-0.122615 -0.15635,0.07708 -0.515365,0.764263 -0.515365,0.986444 0,0.216897 2.336596,0.169595 2.526788,-0.05116 z"
     id="path3137" />
  <path
     style="fill:#af83f8;stroke:none;stroke-width:0;stroke-linecap:round;stroke-linejoin:round;stroke-miterlimit:0;stroke-dasharray:none"
     d="M 96.165063,10.616309 V 6.0276317 h 0.680377 0.680373 v 4.5886773 4.588676 H 96.84544 96.165063 Z"
     id="path3139" />
  <path
     style="fill:#af83f8;stroke:none;stroke-width:0;stroke-linecap:round;stroke-linejoin:round;stroke-miterlimit:0;stroke-dasharray:none"
     d="M 98.886564,10.616309 V 6.0276317 h 0.793777 0.793779 v 4.5886773 4.588676 h -0.793779 -0.793777 z"
     id="path3141" />
  <path
     style="fill:#af83f8;stroke:none;stroke-width:0;stroke-linecap:round;stroke-linejoin:round;stroke-miterlimit:0;stroke-dasharray:none"
     d="m 103.50511,15.058763 c -0.78259,-0.176243 -1.20283,-0.553014 -1.58303,-1.419236 -0.69952,-1.593767 -0.49972,-3.333185 0.48848,-4.2527936 1.17864,-1.096818 2.69824,-1.152407 3.6601,-0.133889 0.7256,0.7683456 1.12186,2.4399906 0.68802,2.9025196 -0.1261,0.134447 -0.74521,0.209767 -2.09526,0.25489 l -1.91627,0.06404 0.23318,0.420667 c 0.41647,0.751352 0.79741,0.89977 2.02298,0.78815 1.05091,-0.09571 1.09619,-0.08722 1.34464,0.252524 0.2132,0.291559 0.2306,0.379842 0.10175,0.517163 -0.47224,0.503485 -2.0019,0.818261 -2.94463,0.605953 z m 2.05384,-3.863155 c 0.0213,-0.02612 0.005,-0.18424 -0.0364,-0.35141 -0.18703,-0.75699 -1.65516,-1.0518636 -2.16622,-0.435082 -0.43286,0.522401 -0.36139,0.834717 0.20781,0.908089 0.47122,0.06074 1.91806,-0.02748 1.9948,-0.121599 z"
     id="path3143" />
  <path
     style="fill:#af83f8;stroke:none;stroke-width:0;stroke-linecap:round;stroke-linejoin:round;stroke-miterlimit:0;stroke-dasharray:none"
     d="m 109.59056,15.048203 c -0.25605,-0.07885 -0.68396,-0.383552 -0.95093,-0.677108 -1.45956,-1.604935 -1.11582,-4.4437556 0.66167,-5.4642766 0.93224,-0.535242 2.67772,-0.253177 3.17249,0.512667 0.12358,0.19129 0.094,0.302537 -0.18898,0.7093166 l -0.33557,0.482445 -0.54968,-0.253115 c -0.9023,-0.4154776 -1.3328,-0.34293 -1.88393,0.317473 -0.40162,0.481268 -0.47496,0.657349 -0.47496,1.140417 0,0.695116 0.27068,1.260631 0.76134,1.590642 0.49489,0.332859 1.30219,0.320567 1.75994,-0.0268 l 0.36734,-0.278752 0.35512,0.456215 c 0.20566,0.264193 0.32837,0.545806 0.29155,0.669073 -0.19119,0.640081 -1.9782,1.13199 -2.9854,0.821794 z"
     id="path3145" />
  <path
     style="mix-blend-mode:normal;fill:#af83f8;fill-opacity:1;stroke:none;stroke-width:0.206252;stroke-linecap:round;stroke-linejoin:round;stroke-miterlimit:0;stroke-dasharray:none;stroke-opacity:1"
     d="m 114.19504,12.866016 v -2.338964 l -0.34798,-0.408302 c -0.29236,-0.3430346 -0.3422,-0.4979866 -0.31183,-0.9693276 0.0297,-0.460798 0.0868,-0.576159 0.31964,-0.645751 0.26832,-0.08021 0.28525,-0.144775 0.3166,-1.2075523 l 0.0331,-1.1228156 h 0.67561 0.67561 l 0.002,0.9832876 c 0.002,1.0858443 0.0602,1.2877403 0.39515,1.3683463 0.18189,0.04378 0.23356,0.188894 0.26096,0.733019 0.0302,0.599506 0.004,0.690625 -0.22679,0.7831076 -0.14354,0.05756 -0.29846,0.177762 -0.34428,0.267118 -0.0459,0.08935 -0.0841,1.227685 -0.085,2.529629 l -0.002,2.367174 h -0.68038 -0.68038 z"
     id="path3147" />
  <path
     style="fill:#af83f8;fill-opacity:1;stroke:none;stroke-width:0.0244156;stroke-linecap:round;stroke-linejoin:round;stroke-miterlimit:0;stroke-dasharray:none;stroke-opacity:1"
     d="m 39.760669,12.974933 c -0.436046,-0.08114 -0.830171,-0.447326 -0.973139,-0.904164 -0.05699,-0.1821 -0.05734,-0.493097 -7.7e-4,-0.692218 0.111085,-0.391108 0.333519,-0.728333 0.585979,-0.888411 0.162227,-0.102861 0.295875,-0.141656 0.487962,-0.141642 0.242619,1.7e-5 0.431465,0.07546 0.664949,0.265633 0.132338,0.107794 0.338665,0.371003 0.402386,0.513322 0.04582,0.102299 0.04736,0.115967 0.04531,0.404278 -0.0036,0.497841 -0.06254,0.782283 -0.207452,0.999844 -0.224942,0.337721 -0.624888,0.514123 -1.005201,0.443358 z m 0.39613,-0.368635 c 0.352588,-0.08508 0.517873,-0.381468 0.51873,-0.930182 5.15e-4,-0.295719 -0.02418,-0.422399 -0.10947,-0.562883 -0.08012,-0.131964 -0.261075,-0.295833 -0.417966,-0.378519 -0.09941,-0.05239 -0.131279,-0.05962 -0.261269,-0.05929 -0.178583,4.94e-4 -0.260751,0.03628 -0.449469,0.196029 -0.145816,0.123421 -0.267057,0.2982 -0.320699,0.462313 -0.04971,0.152091 -0.06002,0.399802 -0.02376,0.570977 0.05797,0.27359 0.244429,0.582247 0.40298,0.667079 0.134763,0.0721 0.439175,0.08798 0.660913,0.03448 z"
     id="path3632" />
</svg>
