<?xml version="1.0" encoding="UTF-8" standalone="no"?>
<svg
   version="1.0"
   width="300pt"
   height="55pt"
   viewBox="0 0 299.99999 55"
   preserveAspectRatio="xMidYMid"
   id="svg1981"
   sodipodi:docname="logo_home.svg"
   inkscape:version="1.2.1 (9c6d41e410, 2022-07-14)"
   xmlns:inkscape="http://www.inkscape.org/namespaces/inkscape"
   xmlns:sodipodi="http://sodipodi.sourceforge.net/DTD/sodipodi-0.dtd"
   xmlns="http://www.w3.org/2000/svg"
   xmlns:svg="http://www.w3.org/2000/svg">
  <defs
     id="defs1985" />
  <sodipodi:namedview
     id="namedview1983"
     pagecolor="#ffffff"
     bordercolor="#000000"
     borderopacity="0.25"
     inkscape:showpageshadow="2"
     inkscape:pageopacity="0.0"
     inkscape:pagecheckerboard="0"
     inkscape:deskcolor="#d1d1d1"
     inkscape:document-units="pt"
     showgrid="false"
     inkscape:zoom="2.4071429"
     inkscape:cx="126.2908"
     inkscape:cy="61.068249"
     inkscape:window-width="1920"
     inkscape:window-height="1017"
     inkscape:window-x="-8"
     inkscape:window-y="-8"
     inkscape:window-maximized="1"
     inkscape:current-layer="svg1981" />
  <path
     style="fill:#81b4fe;stroke:none;stroke-width:0.283989;stroke-linecap:round;stroke-linejoin:round;stroke-miterlimit:0"
     d="m 8.7194299,51.921273 c 0.163388,-0.86381 1.8485341,-5.864881 4.1278351,-12.25032 l 1.849943,-5.182599 -1.91899,-2.299595 C 8.2975483,26.819419 6.1884631,22.694338 3.6990113,14.431061 3.0645492,12.325085 2.5764143,10.567278 2.6142661,10.524823 c 0.037854,-0.04245 0.4220753,0.265589 0.8538271,0.684542 2.1896391,2.124727 4.9885134,3.933213 8.6425368,5.58435 3.814595,1.723691 5.771362,2.947113 7.888419,4.932036 2.265253,2.123869 2.718073,2.444136 4.078435,2.884549 1.38458,0.448261 3.022037,0.284922 5.146512,-0.513366 0.873732,-0.32831 1.624253,-0.596928 1.667817,-0.596928 0.04357,0 0.07921,0.260682 0.07921,0.579296 0,0.854148 -0.481286,1.358188 -1.836489,1.92333 -1.051643,0.438545 -1.499718,0.50492 -3.408902,0.50492 -3.52775,0 -3.626923,-0.0476 -11.355078,-5.451471 -2.984988,-2.08723 -5.4615643,-3.756476 -5.5035031,-3.709438 -0.094873,0.106402 2.2295691,2.554148 4.1374291,4.356916 1.868978,1.766025 5.049332,4.296498 6.667744,5.305246 0.707702,0.44111 1.286924,0.857955 1.287164,0.926329 8.61e-4,0.268812 -1.654121,0.623547 -2.489292,0.533546 C 16.596594,28.266774 13.469081,25.60293 9.3396701,20.691887 7.9139677,18.996317 6.2501255,17.018615 5.6422459,16.296991 4.4852698,14.923525 4.0971034,14.77859 4.612224,15.912395 c 0.4714589,1.037699 2.8777149,4.92382 4.0153701,6.484846 1.3673288,1.876175 4.5487579,5.30541 7.5053959,8.090008 1.327379,1.250139 2.483916,2.383019 2.570081,2.517505 0.101606,0.158595 -0.126018,0.803781 -0.647813,1.836104 -1.615587,3.19629 -5.165992,11.116279 -5.109179,11.397179 0.03341,0.165182 1.053232,-1.011878 2.382439,-2.749765 3.124582,-4.085263 7.65751,-9.155266 10.815682,-12.097167 5.073643,-4.726206 5.999306,-5.160319 2.862519,-1.342453 -0.982045,1.195273 -1.786515,2.240896 -1.787716,2.323604 -0.0056,0.404308 0.546892,-0.0083 2.380135,-1.775847 3.744902,-3.61111 7.656808,-6.110063 14.422218,-9.213002 8.987426,-4.122066 17.168197,-6.413225 26.190037,-7.334947 3.837302,-0.392042 11.143237,-0.341112 13.765412,0.09596 7.871374,1.312022 12.460315,3.649159 17.943875,9.138779 1.60775,1.609543 3.85838,4.451399 4.9896,6.300404 l 0.83927,1.371784 -0.55207,0.532991 c -0.30365,0.293148 -0.73126,0.695905 -0.95026,0.895021 -0.31987,0.290816 -0.35604,0.418981 -0.1839,0.651631 0.11783,0.159298 0.4458,0.28961 0.72873,0.28961 0.28295,0 0.51443,0.08639 0.51443,0.191949 0,0.24017 -2.10574,2.134678 -3.42368,3.080244 -1.75796,1.261239 -5.898892,3.473441 -8.375249,4.474269 -2.176997,0.879847 -2.553514,0.973004 -3.84359,0.950945 -3.886419,-0.06645 -7.771639,-2.517232 -8.861237,-5.589626 -0.377748,-1.065153 -0.426898,-1.524702 -0.428861,-4.010054 -0.002,-2.383206 0.06071,-3.032793 0.414495,-4.302174 0.735505,-2.638918 2.026313,-5.212618 3.770951,-7.518813 0.858308,-1.134573 1.106734,-1.712951 0.735752,-1.712951 -0.330517,0 -3.022974,2.419805 -3.97297,3.570647 -2.101431,2.545705 -3.055946,4.771758 -3.367113,7.852541 -0.313033,3.099171 0.113003,5.028015 1.594914,7.220798 0.431476,0.638459 0.657555,1.13208 0.538811,1.176474 -0.330786,0.123653 -2.568047,-0.939048 -3.69169,-1.753569 -1.692794,-1.22711 -2.551361,-2.499928 -3.733894,-5.535468 -0.251153,-0.644707 -0.310962,2.0691 -0.06607,2.99777 0.392697,1.489177 3.655572,4.807193 5.195268,5.283068 l 0.609043,0.188251 -0.536317,0.242748 c -0.294974,0.133494 -1.300569,0.421235 -2.234644,0.639429 -0.934082,0.218195 -1.939672,0.502478 -2.234646,0.631743 -0.810902,0.355374 -2.821027,0.222074 -5.384017,-0.357081 C 67.856243,40.55872 65.91925,39.865984 55.999032,36.0343 47.995326,32.942873 41.84413,31.777783 36.275374,32.298453 c -3.982451,0.372357 -8.771848,1.58332 -11.00401,2.782286 -0.812347,0.436336 -1.738857,1.383443 -4.847871,4.955635 C 13.767284,47.684216 9.2198746,52.564751 8.7444418,52.570995 8.6628838,52.571956 8.6516245,52.2797 8.7193984,51.921302 Z M 99.761298,33.323276 c 2.692792,-1.299228 3.303912,-4.466702 1.301132,-6.744045 -1.669923,-1.898889 -4.244911,-1.798964 -6.26008,0.242904 -0.967306,0.980135 -1.440038,2.03359 -1.440038,3.209028 0,3.026791 3.362941,4.756924 6.398986,3.292095 z"
     id="path3018" />
  <path
     style="fill:#81b4fe;stroke:none;stroke-width:0.283989;stroke-linecap:round;stroke-linejoin:round;stroke-miterlimit:0"
     d="m 52.318573,15.205669 c -0.04598,-0.134356 0.119778,-1.031242 0.368272,-1.993085 0.248536,-0.961841 0.45186,-2.041964 0.45186,-2.400272 0,-0.71547 0.550579,-0.285609 -9.140173,-7.1361413 C 42.265301,2.450925 40.656359,1.2610051 40.423101,1.0319023 l -0.424104,-0.4165504 1.251398,0.12069614 c 5.032326,0.48536636 21.954009,5.12914826 34.923996,9.58411696 4.100699,1.408519 4.088609,1.443048 -0.421081,1.202191 -1.573191,-0.08402 -4.532288,-0.07522 -6.57577,0.01958 l -3.715425,0.172319 -0.932638,-0.816282 c -0.976879,-0.855008 -1.31241,-0.807691 -0.678803,0.09572 0.20453,0.291623 0.371872,0.598484 0.371872,0.681915 0,0.275993 -1.376148,0.7749 -1.809305,0.655946 -0.233936,-0.06424 -1.792947,-1.083661 -3.464457,-2.265378 -3.436626,-2.4296007 -5.893379,-3.9817502 -5.790213,-3.6581811 0.08432,0.2643699 3.103148,3.1135115 5.078479,4.7929821 1.448304,1.231383 1.989846,1.809515 1.846044,1.970797 -0.08668,0.0972 -4.842286,1.535467 -6.582634,1.990817 -0.851537,0.222795 -1.11709,0.232478 -1.181887,0.04308 z"
     id="path3020" />
  <path
     style="fill:#81b4fe;stroke:none;stroke-width:0.283989;stroke-linecap:round;stroke-linejoin:round;stroke-miterlimit:0"
     d="M 62.940252,45.136286 C 60.926532,42.457835 57.049277,40.232949 50.957387,38.260154 45.817182,36.595552 41.687203,35.6438 37.282531,35.108773 c -2.145526,-0.26062 -2.657246,-0.441721 -2.199757,-0.778545 0.350804,-0.25824 6.250847,-0.258501 8.259927,-2.42e-4 2.843741,0.365452 8.806174,2.348261 13.818368,4.595304 2.221993,0.996157 7.955331,4.001296 7.955331,4.169808 0,0.190204 -1.236595,3.061804 -1.318513,3.061804 -0.04973,0 -0.435643,-0.459242 -0.857635,-1.020536 z"
     id="path3022" />
  <path
     style="fill:#81b4fe;stroke:none;stroke-width:0.283989;stroke-linecap:round;stroke-linejoin:round;stroke-miterlimit:0"
     d="m 72.743007,49.519668 c 0.06022,-2.676641 0.176151,-5.012865 0.257714,-5.191621 0.261147,-0.572422 4.479125,-2.817981 4.74116,-2.524095 0.05691,0.06384 -0.277662,0.573117 -0.743537,1.13171 -0.465872,0.558596 -0.806217,1.015628 -0.75633,1.015628 0.04991,0 1.174045,-0.630934 2.498123,-1.402077 1.946379,-1.133574 2.582506,-1.410624 3.321711,-1.446696 0.502863,-0.02448 0.976292,0.02473 1.052056,0.109878 0.16558,0.1857 -0.631449,1.853575 -1.550626,3.244877 -1.657897,2.509449 -7.400643,8.998241 -8.62125,9.741237 -0.28957,0.176274 -0.301764,-0.110295 -0.199039,-4.678848 z m 4.844931,-4.662239 c 1.168569,-0.985205 1.578279,-1.456002 1.420808,-1.632623 -0.309795,-0.347452 -2.808506,1.739674 -2.808506,2.34589 0,0.349939 0.324372,0.183226 1.387698,-0.713267 z m 2.635254,-2.110232 c 0.143794,-0.260908 -0.199758,-0.254959 -0.643055,0.0112 -0.192932,0.115788 -0.303436,0.296504 -0.245559,0.401542 0.113619,0.206192 0.696824,-0.06465 0.888609,-0.412684 z"
     id="path3024" />
  <path
     style="fill:#81b4fe;stroke:none;stroke-width:0.283989;stroke-linecap:round;stroke-linejoin:round;stroke-miterlimit:0"
     d="m 83.529875,44.221702 c 0,-0.204108 1.090134,-2.475939 1.188068,-2.475939 0.06063,0 0.752546,0.38346 1.537524,0.852133 l 1.427236,0.852137 -1.227247,0.320215 c -1.29216,0.337155 -2.925581,0.589211 -2.925581,0.451454 z"
     id="path3026" />
  <path
     style="fill:#81b4fe;stroke:none;stroke-width:0.49831;stroke-linecap:round;stroke-linejoin:round;stroke-miterlimit:0"
     d="m 113.87485,38.312857 c -0.33123,-0.283466 5.6498,-18.242519 7.29173,-21.894762 0.69876,-1.554296 0.89065,-1.740968 1.68343,-1.637568 0.54636,0.07127 1.10683,0.488761 1.43939,1.072191 0.41428,0.726873 7.80546,22.177436 7.80546,22.65296 0,0.300965 -3.33286,0.03174 -3.82081,-0.308503 -0.32002,-0.223246 -0.83053,-1.162029 -1.13438,-2.086108 l -0.55249,-1.680173 h -3.89234 -3.89232 l -0.34484,1.500243 c -0.50303,2.188605 -1.00266,2.672931 -2.75049,2.666187 -0.82875,-0.0031 -1.65331,-0.131229 -1.83238,-0.284525 z M 123.87506,29.6403 c 0.86398,-0.301803 0.82826,-1.05379 -0.19842,-4.180107 l -0.85318,-2.597778 -1.03809,2.960553 c -0.57096,1.628298 -1.03809,3.110427 -1.03809,3.293627 0,0.295984 0.72542,0.545566 2.03676,0.700763 0.24006,0.0282 0.73105,-0.05114 1.09113,-0.177055 z"
     id="path3028" />
  <path
     style="fill:#81b4fe;stroke:none;stroke-width:0.49831;stroke-linecap:round;stroke-linejoin:round;stroke-miterlimit:0"
     d="m 144.60642,41.447845 c 0,-2.190423 -0.0491,-3.982585 -0.10897,-3.982585 -0.0599,0 -0.66556,0.255949 -1.34593,0.568935 -2.93293,1.348921 -6.42286,0.124954 -7.97646,-2.797484 -1.39196,-2.618312 -1.52474,-8.116759 -0.24271,-10.048212 0.9031,-1.360512 1.94307,-2.519119 2.81943,-3.140983 1.14279,-0.810941 3.96544,-0.782071 6.01852,0.06153 1.61165,0.662246 1.63443,0.660809 2.25046,-0.142191 0.34233,-0.446181 0.94968,-0.811248 1.34977,-0.811248 h 0.72739 v 12.137426 12.137418 h -1.74579 -1.7458 z m -2.27483,-7.016951 c 0.32294,0 1.03239,-0.580319 1.57649,-1.289591 0.81071,-1.056796 0.9893,-1.576905 0.9893,-2.881013 0,-2.992693 -1.5716,-4.932451 -3.99627,-4.932451 -0.88187,0 -1.40542,0.294354 -2.28376,1.284147 -1.04495,1.177479 -1.13962,1.443249 -1.13962,3.1991 0,1.605525 0.1392,2.104446 0.86198,3.087766 0.86537,1.177466 2.2941,1.976357 3.01712,1.687083 0.21326,-0.08525 0.65177,-0.155028 0.97476,-0.155028 z"
     id="path3030" />
  <path
     style="fill:#81b4fe;stroke:none;stroke-width:0.49831;stroke-linecap:round;stroke-linejoin:round;stroke-miterlimit:0"
     d="m 154.80728,37.776846 c -2.34957,-1.600894 -2.73183,-3.066879 -3.07305,-11.785243 l -0.18921,-4.836013 h 1.72871 1.7287 l 0.20255,4.836013 c 0.32808,7.831026 0.62948,8.547672 3.5949,8.547672 1.16081,0 1.71064,-0.190021 2.12937,-0.735856 0.72088,-0.939721 1.13127,-4.180116 1.13343,-8.949707 l 0.002,-3.698122 h 1.89129 1.89128 v 8.723776 8.723773 h -1.02463 c -0.84048,0 -1.08637,-0.18747 -1.36826,-1.043061 -0.18903,-0.573682 -0.37057,-1.098518 -0.4035,-1.166293 -0.0329,-0.0678 -0.60266,0.345044 -1.26607,0.917312 -0.9884,0.852653 -1.61061,1.068161 -3.44556,1.193412 -1.91822,0.130916 -2.42465,0.02645 -3.53166,-0.727663 z"
     id="path3032" />
  <path
     style="fill:#81b4fe;stroke:none;stroke-width:0.49831;stroke-linecap:round;stroke-linejoin:round;stroke-miterlimit:0"
     d="m 172.97563,38.066633 c -1.07853,-0.393443 -1.76484,-0.976634 -2.6534,-2.254795 -3.04803,-4.384489 -1.98912,-10.952307 2.21208,-13.720196 1.5159,-0.998724 4.46874,-0.920929 6.07064,0.159948 1.306,0.881219 2.08128,0.845732 2.08128,-0.0953 0,-0.590648 0.60591,-1.000716 1.47863,-1.000716 0.53403,0 0.55815,0.376867 0.55815,8.723782 0,8.34692 -0.0241,8.723777 -0.55815,8.723777 -0.85653,0 -1.47863,-0.406578 -1.47863,-0.966437 0,-0.93989 -0.59579,-0.994326 -1.68263,-0.153752 -1.35722,1.049729 -4.03858,1.309354 -6.02797,0.583668 z m 4.9882,-4.449021 c 1.13103,-0.885182 1.95593,-3.017506 1.70981,-4.419791 -0.7692,-4.382618 -5.68751,-5.229124 -7.26581,-1.250535 -0.56462,1.423313 -0.5695,2.428564 -0.019,3.817486 1.11458,2.809646 3.38692,3.564917 5.57451,1.85284 z"
     id="path3034" />
  <path
     style="fill:#af83f8;stroke:none;stroke-width:0.49831;stroke-linecap:round;stroke-linejoin:round;stroke-miterlimit:0"
     d="m 187.09146,37.18079 c 0.007,-2.573354 0.2451,-3.129179 1.33931,-3.129179 h 0.98446 V 26.27607 18.50053 h -0.8147 c -1.10332,0 -1.51303,-0.636808 -1.51303,-2.351626 v -1.441318 h 4.3645 4.36448 v 1.296508 c 0,2.04276 -0.24361,2.496436 -1.34047,2.496436 h -0.98726 v 7.77554 7.775541 h 0.98726 c 1.13786,0 1.34047,0.434699 1.34047,2.875727 v 1.675801 h -4.36448 -4.3645 z"
     id="path3105" />
  <path
     style="fill:#af83f8;stroke:none;stroke-width:0;stroke-linecap:round;stroke-linejoin:round;stroke-miterlimit:0;stroke-dasharray:none"
     d="M 200.18099,29.879366 V 21.15559 l 0.94564,0.0057 c 1.23602,0.0076 1.59927,0.344471 1.71954,1.594632 l 0.0989,1.029034 1.22965,-1.080667 c 2.87182,-2.523892 7.38444,-1.582263 8.93796,1.865052 0.52612,1.167501 0.60985,2.092275 0.69542,7.6805 l 0.0972,6.353181 h -1.58473 -1.58473 l -0.15296,-5.404944 c -0.0841,-2.972717 -0.23719,-5.669998 -0.3402,-5.993965 -0.29144,-0.916588 -1.75562,-1.876396 -2.86237,-1.876396 -1.34991,0 -2.89695,1.416714 -3.32782,3.047489 -0.19088,0.722921 -0.35467,3.319916 -0.36368,5.771109 l -0.0174,4.456707 h -1.74582 -1.74579 z"
     id="path3133" />
  <path
     style="fill:#af83f8;stroke:none;stroke-width:0;stroke-linecap:round;stroke-linejoin:round;stroke-miterlimit:0;stroke-dasharray:none"
     d="m 218.5079,32.818893 c -0.004,-6.645181 -0.097,-7.346658 -1.00738,-7.644512 -1.13704,-0.37202 -1.13226,-3.68456 0.007,-3.965854 0.81322,-0.201036 0.99614,-0.742819 1.00118,-2.965374 0.007,-2.51764 0.51867,-3.271413 1.99709,-2.934566 1.34558,0.306585 1.78878,1.042622 1.79438,2.979967 0.004,1.795563 0.24104,2.389685 1.19284,3.004957 1.20545,0.779217 0.96735,4.034328 -0.29505,4.034328 -0.69437,0 -0.90223,1.934452 -0.90223,8.397407 v 4.877893 h -1.89126 -1.89129 z"
     id="path3135" />
  <path
     style="fill:#af83f8;stroke:none;stroke-width:0;stroke-linecap:round;stroke-linejoin:round;stroke-miterlimit:0;stroke-dasharray:none"
     d="m 230.29602,38.224587 c -1.31928,-0.54087 -3.06497,-2.604234 -3.66829,-4.335797 -0.72278,-2.074448 -0.71992,-5.952492 0.007,-8.036043 1.08163,-3.104869 3.43094,-4.489396 7.2356,-4.264169 2.66521,0.157788 3.32518,0.607807 4.80857,3.278861 0.73447,1.322486 0.9252,2.083011 1.02263,4.077407 l 0.11973,2.451698 -4.9076,0.0057 c -2.69915,0.0031 -5.07513,0.144404 -5.27991,0.313794 -0.28859,0.238738 -0.23843,0.529939 0.2228,1.294273 0.87723,1.453774 2.33976,1.948609 4.77772,1.616511 2.83403,-0.386037 3.09766,-0.346588 3.7875,0.567022 l 0.60429,0.800315 -0.67794,0.726033 c -0.37288,0.399348 -1.15849,0.899794 -1.74581,1.112159 -1.57916,0.570997 -5.30389,0.802643 -6.30524,0.392075 z m 5.75612,-10.225892 c 0.38618,-0.45478 -0.11113,-1.532946 -0.976,-2.115947 -0.83345,-0.561812 -3.32095,-0.751607 -4.18517,-0.319259 -0.40118,0.200697 -1.32238,1.989951 -1.32238,2.568455 0,0.564746 5.99553,0.441584 6.48355,-0.133208 z"
     id="path3137" />
  <path
     style="fill:#af83f8;stroke:none;stroke-width:0;stroke-linecap:round;stroke-linejoin:round;stroke-miterlimit:0;stroke-dasharray:none"
     d="M 242.66208,26.655364 V 14.707586 h 1.7458 1.74579 v 11.947778 11.947775 h -1.74579 -1.7458 z"
     id="path3139" />
  <path
     style="fill:#af83f8;stroke:none;stroke-width:0;stroke-linecap:round;stroke-linejoin:round;stroke-miterlimit:0;stroke-dasharray:none"
     d="M 249.64526,26.655364 V 14.707586 h 2.03677 2.03678 v 11.947778 11.947775 h -2.03678 -2.03677 z"
     id="path3141" />
  <path
     style="fill:#af83f8;stroke:none;stroke-width:0;stroke-linecap:round;stroke-linejoin:round;stroke-miterlimit:0;stroke-dasharray:none"
     d="m 261.49611,38.222413 c -2.00806,-0.458893 -3.08637,-1.439911 -4.06194,-3.695339 -1.79491,-4.149774 -1.28224,-8.678787 1.25341,-11.07322 3.0243,-2.855842 6.92349,-3.000582 9.39155,-0.348613 1.86184,2.000581 2.87861,6.35313 1.76541,7.557441 -0.32356,0.350066 -1.91215,0.546181 -5.37629,0.66367 l -4.91701,0.166744 0.59833,1.095313 c 1.06863,1.956334 2.04609,2.342778 5.19082,2.052147 2.69656,-0.249205 2.81274,-0.227099 3.45025,0.65751 0.54705,0.759147 0.5917,0.989014 0.26108,1.346564 -1.21173,1.31095 -5.13673,2.130549 -7.55571,1.577752 z m 5.27001,-10.058698 c 0.0546,-0.06801 0.0128,-0.479715 -0.0934,-0.914984 -0.47991,-1.971015 -4.24702,-2.738792 -5.55836,-1.132846 -1.11069,1.360203 -0.9273,2.173396 0.53322,2.364439 1.20912,0.158152 4.9216,-0.07155 5.11851,-0.316614 z"
     id="path3143" />
  <path
     style="fill:#af83f8;stroke:none;stroke-width:0;stroke-linecap:round;stroke-linejoin:round;stroke-miterlimit:0;stroke-dasharray:none"
     d="m 277.11094,38.194917 c -0.65701,-0.205306 -1.75499,-0.998674 -2.44002,-1.763021 -3.74512,-4.178853 -2.86311,-11.570438 1.6978,-14.227621 2.39206,-1.393638 6.87084,-0.659211 8.14038,1.334857 0.3171,0.498072 0.2412,0.787732 -0.48491,1.846885 l -0.86105,1.256167 -1.41044,-0.659049 c -2.31523,-1.0818 -3.41987,-0.892904 -4.83403,0.826621 -1.03052,1.253103 -1.21871,1.711574 -1.21871,2.969363 0,1.80991 0.69455,3.282371 1.95355,4.141638 1.26985,0.866682 3.34132,0.834677 4.51587,-0.06978 l 0.94257,-0.725801 0.91121,1.187871 c 0.52771,0.687893 0.84258,1.421143 0.7481,1.7421 -0.49058,1.666612 -5.07592,2.947421 -7.66032,2.139748 z"
     id="path3145" />
  <path
     style="mix-blend-mode:normal;fill:#af83f8;fill-opacity:1;stroke:none;stroke-width:0.533114;stroke-linecap:round;stroke-linejoin:round;stroke-miterlimit:0;stroke-dasharray:none;stroke-opacity:1"
     d="m 288.9257,32.513043 v -6.090082 l -0.89289,-1.063117 c -0.75017,-0.893177 -0.87806,-1.296634 -0.80013,-2.523889 0.0762,-1.199803 0.22272,-1.500175 0.82017,-1.681375 0.68849,-0.208847 0.73193,-0.376958 0.81237,-3.144167 l 0.0849,-2.923533 h 1.73356 1.73357 l 0.005,2.560237 c 0.005,2.827269 0.15447,3.352956 1.01393,3.562834 0.46671,0.113992 0.5993,0.491833 0.6696,1.9086 0.0775,1.560965 0.0103,1.798216 -0.58192,2.039018 -0.36832,0.149872 -0.76583,0.462848 -0.8834,0.695509 -0.11778,0.232645 -0.2158,3.196587 -0.21811,6.586527 l -0.005,6.163534 h -1.7458 -1.74581 z"
     id="path3147" />
  <path
     style="fill:#af83f8;fill-opacity:1;stroke:none;stroke-width:0.0631087;stroke-linecap:round;stroke-linejoin:round;stroke-miterlimit:0;stroke-dasharray:none;stroke-opacity:1"
     d="m 97.932481,32.796636 c -1.118862,-0.211268 -2.130158,-1.164726 -2.497004,-2.354219 -0.146232,-0.474143 -0.14713,-1.283902 -0.002,-1.802364 0.285036,-1.018348 0.855786,-1.896398 1.50358,-2.313202 0.416263,-0.267824 0.759194,-0.368837 1.252075,-0.3688 0.622543,4.4e-5 1.107108,0.196479 1.706211,0.691642 0.339577,0.280669 0.868997,0.966 1.032497,1.336563 0.11757,0.266362 0.12152,0.30195 0.11626,1.05264 -0.009,1.296255 -0.16047,2.036871 -0.5323,2.603346 -0.577193,0.879342 -1.603425,1.338649 -2.579281,1.154394 z m 1.016441,-0.959834 c 0.904716,-0.221527 1.328828,-0.993248 1.331028,-2.421963 0.001,-0.769979 -0.062,-1.099822 -0.280896,-1.465608 -0.205582,-0.343601 -0.6699,-0.770276 -1.072471,-0.98557 -0.255078,-0.13641 -0.336852,-0.155235 -0.670397,-0.154376 -0.458231,0.0013 -0.669068,0.09446 -1.153305,0.510411 -0.374153,0.321358 -0.685249,0.776439 -0.82289,1.203748 -0.127553,0.396008 -0.154007,1.040986 -0.06097,1.486683 0.148747,0.71236 0.627187,1.516027 1.034018,1.736908 0.345792,0.187731 1.126891,0.229078 1.695855,0.08978 z"
     id="path3632" />
</svg>
