<?xml version="1.0" encoding="UTF-8" standalone="no"?>
<svg
   version="1.0"
   width="80pt"
   height="80pt"
   viewBox="0 0 79.999997 80"
   preserveAspectRatio="xMidYMid"
   id="svg1981"
   sodipodi:docname="logo_icon.svg"
   inkscape:version="1.2.1 (9c6d41e410, 2022-07-14)"
   xmlns:inkscape="http://www.inkscape.org/namespaces/inkscape"
   xmlns:sodipodi="http://sodipodi.sourceforge.net/DTD/sodipodi-0.dtd"
   xmlns="http://www.w3.org/2000/svg"
   xmlns:svg="http://www.w3.org/2000/svg">
  <defs
     id="defs1985" />
  <sodipodi:namedview
     id="namedview1983"
     pagecolor="#ffffff"
     bordercolor="#000000"
     borderopacity="0.25"
     inkscape:showpageshadow="2"
     inkscape:pageopacity="0.0"
     inkscape:pagecheckerboard="0"
     inkscape:deskcolor="#d1d1d1"
     inkscape:document-units="pt"
     showgrid="false"
     inkscape:zoom="3.4042141"
     inkscape:cx="95.029276"
     inkscape:cy="55.225669"
     inkscape:window-width="1920"
     inkscape:window-height="1017"
     inkscape:window-x="-8"
     inkscape:window-y="-8"
     inkscape:window-maximized="1"
     inkscape:current-layer="svg1981" />
  <path
     style="fill:#81b4fe;stroke:none;stroke-width:0.222893;stroke-linecap:round;stroke-linejoin:round;stroke-miterlimit:0"
     d="m 38.999032,29.402764 c -0.03029,-0.125816 0.07883,-0.965694 0.242259,-1.866401 0.163496,-0.900705 0.297241,-1.912175 0.297241,-2.247707 0,-0.669995 0.362183,-0.267456 -6.012621,-6.682561 -1.140162,-1.147367 -2.198564,-2.261654 -2.352006,-2.476194 l -0.27899,-0.390075 0.823202,0.113025 c 3.310388,0.454516 14.441875,4.803133 22.973853,8.974939 2.697543,1.318991 2.689584,1.351325 -0.277003,1.125777 -1.034874,-0.07867 -2.981441,-0.07044 -4.325696,0.01834 l -2.444102,0.161365 -0.613506,-0.764398 c -0.642616,-0.800662 -0.863333,-0.756353 -0.446536,0.08964 0.134549,0.273087 0.244625,0.560445 0.244625,0.638572 0,0.258451 -0.905265,0.725647 -1.190205,0.614253 -0.153887,-0.06015 -1.179445,-1.014782 -2.278999,-2.121387 -2.260703,-2.275172 -3.876815,-3.728665 -3.808943,-3.425662 0.05548,0.247566 2.041323,2.915613 3.340746,4.488334 0.952724,1.153114 1.308967,1.694499 1.214374,1.845531 -0.057,0.09102 -3.185371,1.43787 -4.330223,1.864278 -0.560162,0.208633 -0.734842,0.2177 -0.77747,0.04034 z"
     id="path3020" />
  <path
     style="fill:#81b4fe;stroke:none;stroke-width:0.222893;stroke-linecap:round;stroke-linejoin:round;stroke-miterlimit:0"
     d="m 59.530586,56.574501 c 0,-0.191134 0.717111,-2.318565 0.781541,-2.318565 0.03985,0 0.495037,0.359087 1.011421,0.79797 l 0.93887,0.797975 -0.807317,0.299862 c -0.85001,0.315724 -1.924515,0.55176 -1.924515,0.422758 z"
     id="path3026" />
  <path
     style="fill:#af83f8;stroke:none;stroke-width:4.53038;stroke-linecap:round;stroke-linejoin:round;stroke-miterlimit:0;stroke-dasharray:none;stroke-opacity:1;paint-order:stroke fill markers"
     d="M 3.6972637,68.936486 C 2.9613548,68.258906 16.249535,25.330613 19.897447,16.600498 c 1.552451,-3.715303 1.978767,-4.161511 3.740111,-3.91435 1.213866,0.170352 2.45907,1.168309 3.197924,2.562903 0.92041,1.737477 17.34155,53.011679 17.34155,54.148358 0,0.719393 -7.404691,0.07593 -8.488774,-0.737426 -0.710989,-0.53364 -1.845202,-2.777665 -2.52028,-4.986527 L 31.94051,59.657277 h -8.647695 -8.647651 l -0.766134,3.586082 c -1.117591,5.231517 -2.227633,6.389231 -6.1108218,6.373102 -1.84126,-0.0079 -3.6731975,-0.313666 -4.0710324,-0.680113 z M 25.914925,48.206113 c 1.919535,-0.721416 1.840175,-2.51892 -0.440827,-9.991892 l -1.895524,-6.20958 -2.306346,7.07672 c -1.268525,3.892212 -2.306347,7.435008 -2.306347,7.872914 0,0.707505 1.611671,1.304089 4.525111,1.675068 0.533349,0.06748 1.624188,-0.122236 2.424183,-0.42323 z"
     id="path3028" />
  <path
     style="opacity:1;fill:#af83f8;stroke:none;stroke-width:4.6291;stroke-linecap:round;stroke-linejoin:round;stroke-miterlimit:0;stroke-dasharray:none;stroke-opacity:1;paint-order:stroke fill markers"
     d="m 50.63039,66.0782 c 0.02048,-6.152023 0.717647,-7.480819 3.921546,-7.480819 H 57.43446 V 40.008639 21.419913 h -2.385471 c -3.230558,0 -4.43019,-1.522394 -4.43019,-5.621954 v -3.445712 h 12.779395 12.779318 v 3.09952 c 0,4.883559 -0.71328,5.968146 -3.924926,5.968146 h -2.890734 v 18.588726 18.588742 h 2.890734 c 3.331688,0 3.924926,1.039225 3.924926,6.874909 v 4.006284 H 63.398194 50.618799 Z"
     id="path3105" />
  <path
     style="fill:#af83f8;fill-opacity:1;stroke:none;stroke-width:0.0495318;stroke-linecap:round;stroke-linejoin:round;stroke-miterlimit:0;stroke-dasharray:none;stroke-opacity:1"
     d="m 69.004974,45.875627 c -0.736015,-0.19784 -1.401269,-1.090694 -1.642594,-2.204582 -0.0962,-0.444005 -0.09674,-1.202295 -0.0011,-1.687803 0.187503,-0.953622 0.562953,-1.775861 0.989087,-2.166172 0.273833,-0.250801 0.499424,-0.345394 0.823648,-0.345359 0.409522,4.2e-5 0.728284,0.183992 1.122387,0.647681 0.223388,0.26283 0.57165,0.904599 0.679207,1.251609 0.07731,0.249432 0.07991,0.282757 0.07644,0.985734 -0.0065,1.213863 -0.105538,1.907403 -0.350163,2.437873 -0.379695,0.82345 -1.054776,1.253563 -1.696708,1.081019 z m 0.668631,-0.898826 c 0.595146,-0.207446 0.874136,-0.930116 0.875591,-2.268019 6.51e-4,-0.721038 -0.04082,-1.029916 -0.184788,-1.372452 -0.135234,-0.321762 -0.440673,-0.721317 -0.705494,-0.922927 -0.167795,-0.127739 -0.221585,-0.145368 -0.440998,-0.144563 -0.301444,0.0012 -0.44013,0.08846 -0.758675,0.477969 -0.246134,0.300931 -0.450781,0.727087 -0.541324,1.127236 -0.08393,0.370837 -0.101303,0.974819 -0.04006,1.392188 0.09783,0.667081 0.412584,1.419666 0.680206,1.626507 0.22747,0.175799 0.741302,0.214518 1.115579,0.08408 z"
     id="path3632" />
  <path
     style="fill:#81b4fe;stroke:none;stroke-width:0.222893;stroke-linecap:round;stroke-linejoin:round;stroke-miterlimit:0"
     d="m 45.986235,57.430953 c -1.324678,-2.508205 -3.87523,-4.591674 -7.88262,-6.439076 -3.381353,-1.558798 -6.098158,-2.450055 -8.995658,-2.951076 -1.411378,-0.244054 -1.748001,-0.413644 -1.447056,-0.729059 0.23077,-0.241826 4.111961,-0.242071 5.433588,-2.27e-4 1.870682,0.342224 5.792915,2.199002 9.090056,4.303222 1.461681,0.932839 5.233209,3.746967 5.233209,3.904768 0,0.178115 -0.813463,2.867193 -0.86735,2.867193 -0.03268,0 -0.28658,-0.430052 -0.564169,-0.95567 z"
     id="path3022" />
  <path
     style="fill:#81b4fe;stroke:none;stroke-width:0.222893;stroke-linecap:round;stroke-linejoin:round;stroke-miterlimit:0"
     d="m 52.434719,61.535722 c 0.03963,-2.506511 0.115874,-4.69424 0.169533,-4.861635 0.171791,-0.536038 2.946479,-2.638867 3.118846,-2.363661 0.03746,0.05978 -0.182649,0.536689 -0.489109,1.059778 -0.30646,0.52309 -0.530347,0.951073 -0.497535,0.951073 0.03279,0 0.772312,-0.59083 1.643321,-1.312959 1.280378,-1.061523 1.698836,-1.320963 2.185112,-1.354742 0.330792,-0.02292 0.642225,0.02316 0.692062,0.102894 0.108925,0.173897 -0.415385,1.735761 -1.020043,3.038629 -1.090607,2.349945 -4.868323,8.426302 -5.671264,9.122072 -0.190489,0.165069 -0.198512,-0.103285 -0.130934,-4.381454 z m 3.18712,-4.365901 c 0.768707,-0.922585 1.038229,-1.363457 0.934635,-1.528852 -0.203789,-0.325367 -1.847501,1.629099 -1.847501,2.196783 0,0.327696 0.213377,0.17158 0.912866,-0.667931 z m 1.733527,-1.976104 c 0.09457,-0.244323 -0.131401,-0.238752 -0.423019,0.01051 -0.126916,0.108429 -0.199598,0.277659 -0.16153,0.37602 0.0747,0.193086 0.458392,-0.06054 0.584549,-0.386454 z"
     id="path3024" />
  <path
     style="fill:#81b4fe;stroke:none;stroke-width:0.222893;stroke-linecap:round;stroke-linejoin:round;stroke-miterlimit:0"
     d="m 10.318454,63.784678 c 0.107491,-0.808906 1.216014,-5.492102 2.715393,-11.471675 l 1.216937,-4.853186 -1.262355,-2.15343 C 10.04093,40.278329 8.6535255,36.415445 7.0159039,28.677391 6.5985395,26.705275 6.2774323,25.059195 6.3023313,25.019439 c 0.024897,-0.03974 0.2776523,0.248708 0.5616683,0.641031 1.4403981,1.989677 3.2815664,3.683214 5.6852664,5.229402 2.509335,1.614132 3.796543,2.759791 5.189202,4.61855 1.49014,1.988873 1.788011,2.288783 2.682885,2.701203 0.910814,0.419769 1.987979,0.266812 3.385502,-0.480735 0.574766,-0.307443 1.068479,-0.558987 1.097132,-0.558987 0.02867,0 0.05212,0.244112 0.05212,0.542474 0,0.799858 -0.316601,1.271861 -1.208087,1.801081 -0.691791,0.410671 -0.986547,0.472828 -2.242452,0.472828 -2.320649,0 -2.385882,-0.04458 -7.469656,-5.10497 -1.963592,-1.954562 -3.592743,-3.517709 -3.620333,-3.473661 -0.06243,0.09965 1.466666,2.391804 2.721702,4.079985 1.229456,1.653775 3.321571,4.023408 4.386206,4.968038 0.465537,0.413072 0.846568,0.803422 0.84672,0.86745 5.76e-4,0.251726 -1.08812,0.583914 -1.637511,0.499633 C 15.500262,41.633689 13.442902,39.139162 10.726477,34.540272 9.7886173,32.952475 8.6940998,31.100477 8.2942218,30.42472 7.5331346,29.138554 7.2777896,29.002831 7.6166481,30.064569 c 0.3101365,0.971742 1.8930342,4.610856 2.6414039,6.072662 0.899467,1.756923 2.992288,4.968192 4.937237,7.575796 0.873181,1.170679 1.633983,2.231552 1.690661,2.35749 0.06688,0.148515 -0.08295,0.752691 -0.426145,1.719399 -1.062779,2.99313 -3.398314,10.409714 -3.360942,10.67276 0.02193,0.154682 0.692834,-0.947562 1.567219,-2.574986 2.055427,-3.825599 5.037302,-8.573346 7.114825,-11.328256 3.337564,-4.425803 3.946489,-4.832323 1.883027,-1.257126 -0.646004,1.1193 -1.17521,2.098462 -1.176003,2.175913 -0.0033,0.37861 0.359761,-0.0078 1.56572,-1.662972 2.463483,-3.381583 5.036825,-5.721699 9.487276,-8.627411 5.912155,-3.860063 11.293659,-6.005593 17.228452,-6.868728 2.524264,-0.367124 7.330285,-0.319432 9.055213,0.08985 5.177986,1.228629 8.196702,3.417215 11.803919,8.557908 1.057621,1.507237 2.53814,4.168461 3.282287,5.899942 l 0.552084,1.284592 -0.363159,0.499113 c -0.19975,0.274515 -0.481042,0.651672 -0.625102,0.838132 -0.210424,0.272331 -0.234213,0.392349 -0.120978,0.610212 0.07752,0.149173 0.293258,0.271203 0.479381,0.271203 0.186124,0 0.338404,0.08089 0.338404,0.179747 0,0.224905 -1.385211,1.998995 -2.25218,2.88446 -1.156427,1.181073 -3.880442,3.252666 -5.509441,4.189879 -1.432083,0.823923 -1.67977,0.91116 -2.528412,0.890502 -2.556577,-0.06223 -5.112373,-2.357234 -5.829137,-5.234342 -0.24849,-0.99745 -0.280824,-1.42779 -0.282117,-3.75517 -0.0011,-2.231726 0.03996,-2.840025 0.272671,-4.028722 0.483833,-2.471186 1.332952,-4.881298 2.480617,-7.040908 0.564614,-1.062458 0.728044,-1.604073 0.483995,-1.604073 -0.217416,0 -1.988587,2.265998 -2.613516,3.343691 -1.382365,2.383896 -2.010269,4.46846 -2.21497,7.353423 -0.205917,2.902185 0.07438,4.708429 1.049174,6.761835 0.283843,0.597878 0.432562,1.060125 0.354451,1.101696 -0.2176,0.115794 -1.689325,-0.87936 -2.428488,-1.64211 -1.113561,-1.149114 -1.678348,-2.34103 -2.456252,-5.183626 -0.165211,-0.603728 -0.204549,1.937585 -0.04343,2.807228 0.258328,1.394523 2.404732,4.501641 3.417575,4.94727 l 0.400651,0.176285 -0.352811,0.227319 c -0.194039,0.125009 -0.855537,0.394461 -1.469999,0.598786 -0.614462,0.204326 -1.27596,0.470539 -1.470009,0.591589 -0.533431,0.332786 -1.855731,0.207957 -3.541734,-0.334385 -1.417935,-0.456103 -2.692136,-1.104808 -9.217895,-4.692945 -5.265033,-2.894932 -9.311435,-3.985967 -12.974699,-3.498391 -2.619758,0.348689 -5.770341,1.482683 -7.238711,2.605441 -0.534375,0.408602 -1.143865,1.295509 -3.189042,4.640648 -4.378616,7.161736 -7.370014,11.732057 -7.682771,11.737904 -0.05364,9e-4 -0.06102,-0.272779 -0.0165,-0.608398 z M 70.208013,46.368793 c 1.771377,-1.216647 2.173385,-4.182793 0.855916,-6.315385 -1.098522,-1.778193 -2.792407,-1.684619 -4.11803,0.227465 -0.636319,0.917836 -0.947296,1.904332 -0.947296,3.005058 0,2.834404 2.212224,4.454568 4.20941,3.082845 z"
     id="path3018" />
</svg>
